<svg width="178" height="328" viewBox="0 0 178 328" fill="none" xmlns="http://www.w3.org/2000/svg">
<path d="M177.844 157.148L170.336 148.262L164.949 114.544C164.949 114.522 164.911 114.517 164.907 114.49C164.903 114.476 164.924 114.466 164.92 114.449L162.383 108.185C162.366 108.144 162.291 108.127 162.27 108.095C162.241 108.054 162.27 108.015 162.232 107.981L153.973 100.282L149.173 94.3599L151.483 91.4221C151.567 91.3153 151.525 91.1916 151.508 91.0679C151.496 91.0048 151.55 90.9466 151.513 90.8835L142.755 77.8249L135.163 58.4124C135.163 58.41 135.15 58.41 135.15 58.4051C135.079 58.228 134.89 58.0679 134.605 57.9709L118.72 52.4907H118.716L107.632 48.1191H107.628L100.576 45.2711L100.203 44.9096C100.203 44.9096 100.199 44.9096 100.19 44.9072C100.161 44.8805 100.094 44.8732 100.065 44.8489C100.027 44.8247 100.039 44.7907 99.9976 44.7689L98.2201 43.7888L103.922 43.7233C103.926 43.7233 103.934 43.7209 103.938 43.7209C104.064 43.7185 104.177 43.7063 104.299 43.6821C104.395 43.6651 104.425 43.6044 104.504 43.5753C104.638 43.522 104.743 43.4783 104.84 43.4007C104.936 43.323 104.965 43.2551 104.995 43.1653C105.02 43.1095 105.104 43.0707 105.104 43.0125C105.104 42.9713 105.037 42.9422 105.02 42.9058C105.016 42.867 105.058 42.833 105.033 42.7942L102.152 38.0951C102.136 38.0709 102.085 38.0636 102.06 38.0393C102.043 38.0151 102.064 37.986 102.043 37.9666L97.3314 33.4446L105.024 34.9754C105.15 35.0021 105.288 35.0142 105.414 35.0142C105.661 35.0142 105.909 34.9681 106.106 34.8856H106.11C106.127 34.8832 106.123 34.8686 106.135 34.8614C106.315 34.7813 106.471 34.677 106.55 34.546C106.563 34.5241 106.538 34.5072 106.546 34.4829C106.584 34.3956 106.542 34.3204 106.517 34.2282C106.492 34.1384 106.5 34.0511 106.416 33.971C106.399 33.9541 106.412 33.9298 106.391 33.9128L100.962 29.4952L108.127 27.5059C108.164 27.4962 108.168 27.4719 108.198 27.4598C108.378 27.3967 108.5 27.307 108.6 27.1978C108.642 27.1566 108.713 27.1275 108.734 27.0838C108.739 27.0765 108.751 27.0741 108.76 27.0668C108.801 26.9892 108.718 26.9212 108.713 26.8485C108.709 26.7587 108.76 26.6665 108.688 26.5816C108.684 26.5743 108.659 26.5743 108.659 26.5646C108.575 26.4773 108.424 26.4361 108.286 26.3778C108.173 26.3245 108.093 26.2565 107.963 26.2323C107.946 26.2299 107.938 26.2177 107.921 26.2153L102.132 25.2862L105.511 23.5952C105.565 23.5686 105.557 23.5225 105.603 23.4909C105.641 23.4691 105.703 23.4764 105.729 23.4521C105.787 23.3987 105.754 23.3381 105.787 23.2774C105.842 23.1901 105.884 23.1173 105.871 23.0227C105.867 22.933 105.804 22.865 105.737 22.7826C105.691 22.7268 105.712 22.6613 105.636 22.6127C105.594 22.5861 105.527 22.5909 105.485 22.5666C105.443 22.5424 105.443 22.5036 105.389 22.4866L96.1869 18.9665L93.4619 15.8419L98.2579 15.626C98.631 15.609 98.9077 15.4902 99.1132 15.3301C99.1299 15.3155 99.1677 15.3228 99.1844 15.3082C99.2641 15.2379 99.2222 15.1627 99.2557 15.085C99.285 15.0123 99.3815 14.9565 99.3689 14.8788C99.3647 14.8619 99.3312 14.8522 99.327 14.8327C99.3018 14.7284 99.1928 14.6556 99.088 14.5683C99.0083 14.5028 98.9748 14.4325 98.87 14.3864C98.8448 14.3767 98.8448 14.3548 98.8155 14.3451L85.8992 9.59031L83.3168 8.17602L88.3225 9.14397C88.4482 9.16823 88.5824 9.17793 88.6998 9.17793C89.0184 9.17793 89.2825 9.08818 89.5047 8.96202C89.534 8.94747 89.5844 8.95475 89.6137 8.93534C89.6556 8.90865 89.6389 8.86499 89.6724 8.83345C89.7269 8.78493 89.8065 8.75582 89.8401 8.6976C89.8652 8.6515 89.8149 8.61027 89.8233 8.56174C89.8484 8.46713 89.8401 8.39193 89.794 8.29974C89.752 8.21241 89.6933 8.14691 89.5969 8.07655C89.5508 8.03773 89.555 7.98194 89.4879 7.9504L84.4152 5.41047C84.302 5.35467 84.1637 5.36438 84.0421 5.33769C83.9205 5.311 83.8367 5.24793 83.6983 5.24308L72.2363 4.85978L65.9395 2.05783C65.9017 2.04327 65.8556 2.0554 65.8179 2.04084C65.7802 2.03114 65.7802 2.00203 65.7466 1.99232L59.1522 0.0370387C59.127 0.0297607 59.1061 0.0370386 59.0809 0.0346128C58.93 -0.00662872 58.7665 0.0127791 58.6072 0.0103534C58.4646 0.0103534 58.3305 -0.0114801 58.2005 0.0176312C58.1754 0.0249085 58.1418 0.0152054 58.1167 0.0176312L52.1804 1.5557L46.0723 0.0176312C46.0471 0.0152054 46.0304 0.020057 46.0052 0.0176312C45.8501 -0.0163323 45.6866 0.00792725 45.5189 0.0152052C45.368 0.0224826 45.2296 0.00550115 45.0997 0.0394647C45.0829 0.0418905 45.0536 0.037039 45.0326 0.0418906L35.3987 2.97488C35.34 2.99186 35.3316 3.03311 35.2855 3.05494C35.2268 3.07677 35.1597 3.0695 35.1052 3.09618L27.4292 7.53806L20.8054 9.84026C20.6964 9.87422 20.6796 9.947 20.6083 9.99795C20.5287 10.0465 20.4113 10.061 20.3568 10.1192L16.9988 13.9062L12.5843 18.348L5.66702 20.7715C5.66283 20.7715 5.66283 20.774 5.65444 20.774L5.58737 20.7982C5.47418 20.837 5.45321 20.9122 5.37775 20.9656C5.26456 21.036 5.11783 21.0796 5.06333 21.1767L2.53954 25.6549L0.0199132 29.2478C-0.0178172 29.3036 0.0366823 29.3545 0.0199132 29.4103C-0.00524002 29.5001 -0.00943284 29.5729 0.0241054 29.665C0.0660278 29.7548 0.133106 29.8179 0.221143 29.8955C0.275642 29.9416 0.267256 29.9998 0.346912 30.0386C0.405603 30.0653 0.485265 30.0605 0.543949 30.0847C0.602642 30.1017 0.615219 30.1478 0.678102 30.1575C0.820637 30.1915 0.979941 30.2109 1.13087 30.2109C1.44529 30.2109 1.70941 30.1235 1.9316 29.9998C1.96933 29.9828 2.01544 29.9901 2.04479 29.9731L6.94976 26.686L5.06323 30.2788V30.2812L5.05904 30.2909C5.01712 30.3686 5.09677 30.4341 5.09677 30.5069C5.10096 30.6087 5.05066 30.7131 5.1387 30.8052L10.1694 36.5329L14.366 44.0022C14.4582 44.155 14.6301 44.2763 14.8397 44.3612C14.8523 44.3637 14.8523 44.3685 14.8565 44.3709C15.0535 44.4437 15.2841 44.4825 15.5063 44.4825C15.6321 44.4825 15.7536 44.4728 15.8794 44.4486C16.0848 44.4097 16.2022 44.3103 16.3406 44.223C16.3867 44.1914 16.4747 44.2011 16.5166 44.1672L18.6253 42.2847L20.9226 49.0118C20.9687 49.1549 21.1155 49.2665 21.2874 49.3587C21.3125 49.3732 21.2999 49.3927 21.3293 49.4072H21.3335C21.5515 49.5091 21.8156 49.5697 22.1048 49.5697C22.1845 49.5697 22.2558 49.5673 22.3396 49.5552C22.5199 49.5334 22.6331 49.4509 22.7714 49.3878C22.8511 49.3563 22.9517 49.366 23.0188 49.3223L24.8466 48.0729L25.3035 51.5639C25.3077 51.5954 25.3622 51.6173 25.3748 51.6439C25.4041 51.7264 25.4712 51.7871 25.5509 51.855C25.6431 51.9375 25.7186 52.0054 25.8653 52.0612C25.9114 52.083 25.9198 52.1194 25.9785 52.134C26.1462 52.1825 26.3348 52.2068 26.5067 52.2068C26.5361 52.2068 26.5654 52.2068 26.6031 52.2043C26.6409 52.2019 26.6618 52.1801 26.6996 52.1777C26.9259 52.1558 27.1314 52.0952 27.3116 52.0006C27.3703 51.969 27.4123 51.9423 27.4542 51.9035C27.4961 51.872 27.5632 51.855 27.5883 51.821L30.8709 47.9541L32.1034 50.7997C32.1453 50.887 32.2585 50.9452 32.3423 51.0156C32.401 51.0617 32.4262 51.1126 32.4933 51.1514C32.7113 51.2582 32.9754 51.3285 33.2688 51.3285H33.3275L39.3728 51.1539L42.8775 53.2693L47.2333 56.1804C47.292 56.2192 47.3842 56.2071 47.4513 56.2386C47.5352 56.2726 47.5603 56.3356 47.6484 56.3599L51.0273 57.2405C51.1824 57.2818 51.3585 57.3036 51.522 57.3036C51.6897 57.3036 51.87 57.2818 52.0376 57.2333L55.6933 56.2313L48.9018 69.5061L40.3747 76.9586C40.3705 76.9659 40.3747 76.9731 40.3705 76.9804C40.3663 76.9829 40.3454 76.9829 40.3412 76.9901L29.3535 87.9385C29.3283 87.9627 29.3535 87.987 29.3367 88.0112C29.2696 88.0913 29.2822 88.1714 29.278 88.266C29.2738 88.3606 29.2487 88.4431 29.3074 88.528C29.3199 88.5522 29.2948 88.5741 29.3116 88.5935L36.9205 97.6955C37.0421 97.8386 37.2349 97.9308 37.4487 98.0011C37.4739 98.0084 37.4739 98.023 37.4906 98.0254L44.3408 99.8716L40.1863 129.124C40.1863 129.146 40.2114 129.151 40.2114 129.172C40.2114 129.187 40.1821 129.199 40.1821 129.221L40.5259 133.229C40.53 133.255 40.5804 133.277 40.5929 133.301C40.5971 133.328 40.5636 133.355 40.5762 133.374C40.6181 133.454 40.7271 133.51 40.8025 133.573C40.8612 133.622 40.8948 133.675 40.966 133.709C41.1757 133.816 41.4356 133.886 41.729 133.886H41.7877C41.7919 133.886 41.8003 133.884 41.8003 133.884C41.8925 133.881 41.968 133.876 42.0518 133.862L44.8691 133.406L46.2693 144.242L45.6027 149.373C45.6027 149.4 45.6404 149.419 45.6446 149.443C45.6446 149.47 45.6027 149.492 45.6069 149.516L48.445 161.971L19.1288 210.922C19.1163 210.943 19.1414 210.96 19.133 210.977C19.1205 210.999 19.0869 211.004 19.0785 211.026L15.8672 221.004C15.863 221.021 15.8924 221.035 15.884 221.052C15.8672 221.147 15.9301 221.222 15.9804 221.317C16.0223 221.397 16.0349 221.479 16.1229 221.549C16.1397 221.564 16.1355 221.583 16.1523 221.598L24.386 226.85L47.6192 245.032V259.576C47.6192 259.607 47.6737 259.624 47.6779 259.656C47.6821 259.687 47.6401 259.712 47.6527 259.743L52.8554 271.608L53.5303 280.825C53.5345 280.858 53.589 280.88 53.5974 280.912C53.61 280.939 53.5681 280.968 53.5848 280.994L57.4124 288.308L56.7584 294.026L54.3059 297.34C54.2681 297.386 54.3184 297.43 54.3059 297.476C54.2807 297.522 54.2094 297.549 54.2053 297.597L53.8824 306.539L46.2902 311.592L31.7469 318.378L20.0713 319.421C19.9707 319.431 19.9288 319.486 19.8324 319.503C19.7401 319.525 19.6479 319.503 19.5599 319.537L14.9903 321.398C14.9106 321.43 14.9106 321.485 14.8561 321.524C14.7429 321.595 14.6759 321.653 14.6172 321.74C14.5627 321.827 14.5459 321.898 14.5585 321.99C14.5585 322.043 14.4914 322.085 14.5165 322.14L15.5395 324.491C15.5562 324.537 15.6317 324.561 15.6652 324.598C15.7113 324.661 15.7658 324.7 15.8413 324.751C15.9671 324.833 16.1138 324.889 16.2857 324.933C16.3528 324.947 16.3821 324.991 16.4492 325.003L37.0712 327.64C37.1634 327.65 37.2473 327.655 37.3311 327.655C37.5114 327.655 37.6959 327.633 37.8719 327.582L59.0971 321.447L84.7075 316.473C84.7871 316.459 84.8081 316.41 84.8626 316.393C85.0177 316.34 85.1351 316.289 85.2357 316.202C85.3196 316.139 85.3615 316.088 85.4118 316.01C85.4369 315.969 85.5082 315.94 85.5124 315.896L86.3592 311.884C86.376 311.796 86.2796 311.731 86.246 311.651C86.2083 311.571 86.246 311.483 86.1538 311.41L82.9425 308.681L83.2653 308.174L85.4411 307.415C85.4788 307.405 85.4788 307.376 85.4998 307.366C85.6507 307.303 85.722 307.216 85.8184 307.124C85.8729 307.058 85.9568 307.019 85.9735 306.949C85.9777 306.935 86.0029 306.927 86.0112 306.91L89.8933 290.378C89.8975 290.344 89.8514 290.319 89.8514 290.288C89.8514 290.256 89.8975 290.232 89.8933 290.2L88.2415 282.442L90.2412 278.898L93.6076 281.962C93.834 282.171 94.2281 282.282 94.6222 282.282C94.8276 282.282 95.0372 282.256 95.2301 282.188L95.272 282.173L108.126 277.848L103.812 282.515L97.7836 285.533L93.4614 287.168C93.4489 287.171 93.4489 287.178 93.4447 287.183C93.4405 287.19 93.4279 287.183 93.4153 287.19C93.2895 287.243 93.2728 287.333 93.1889 287.401C93.1051 287.479 92.9793 287.537 92.95 287.624C92.9248 287.712 93.0087 287.799 93.0422 287.886C93.0715 287.969 93.038 288.061 93.126 288.134C93.1302 288.136 93.1428 288.134 93.1512 288.141C93.1554 288.143 93.1512 288.156 93.1554 288.158L95.348 289.922C95.3731 289.939 95.4067 289.931 95.4318 289.948C95.654 290.099 95.9559 290.213 96.3206 290.213C96.3332 290.213 96.3499 290.213 96.3667 290.21L114.41 289.82H114.414H114.456C114.494 289.82 114.515 289.798 114.548 289.795C114.741 289.781 114.934 289.762 115.106 289.691L135.741 281.246L150.271 278.634C150.355 278.617 150.384 278.568 150.451 278.551C150.535 278.524 150.636 278.529 150.715 278.488L158.827 274.284C158.869 274.262 158.857 274.226 158.895 274.204C159.004 274.133 159.033 274.061 159.087 273.973C159.142 273.886 159.188 273.811 159.18 273.723C159.175 273.689 159.222 273.665 159.209 273.636L157.687 269.233C157.683 269.219 157.658 269.211 157.649 269.202C157.612 269.104 157.473 269.041 157.369 268.961C157.276 268.898 157.234 268.823 157.117 268.779C157.1 268.772 157.1 268.758 157.079 268.755L141.417 263.816L142.142 263.396V263.389H142.154C142.276 263.319 142.276 263.226 142.331 263.139C142.377 263.059 142.494 262.989 142.494 262.904C142.49 262.816 142.372 262.741 142.318 262.661C142.263 262.581 142.259 262.484 142.142 262.419H142.129V262.411L118.971 249.41C118.967 249.403 118.946 249.403 118.942 249.403C118.929 249.396 118.929 249.389 118.925 249.381L112.394 246.092L86.1586 226.679L86.9928 225.066C87.0222 225.01 86.9551 224.964 86.9677 224.908C86.9677 224.852 87.0473 224.811 87.0264 224.751L85.5885 219.739L91.248 214.683C91.2899 214.644 91.2606 214.6 91.2899 214.557C91.3277 214.508 91.4115 214.477 91.4241 214.421L96.828 195.933C96.8406 195.884 96.7819 195.852 96.7819 195.806C96.7777 195.76 96.8364 195.734 96.8238 195.688L94.6899 188.948L103.272 176.535L127.31 160.773C127.393 160.717 127.368 160.647 127.423 160.586C127.482 160.514 127.591 160.451 127.603 160.368L129.129 148.828C129.129 148.806 129.1 148.794 129.1 148.772C129.1 148.75 129.129 148.738 129.129 148.716L127.947 140.206C127.943 140.16 127.863 140.133 127.846 140.095C127.829 140.056 127.871 140.012 127.834 139.966L121.139 131.737L120.208 129.032L122.329 128.712C122.354 128.705 122.367 128.69 122.388 128.685C122.434 128.678 122.488 128.678 122.53 128.663C122.644 128.637 122.673 128.562 122.765 128.513C122.891 128.45 123.004 128.406 123.08 128.319C123.147 128.239 123.126 128.159 123.138 128.064C123.142 127.994 123.222 127.933 123.184 127.858C123.172 127.831 123.126 127.824 123.113 127.802C123.101 127.778 123.126 127.754 123.109 127.732L118.912 122.589L112.44 111.449L114.892 103.494L119.219 98.3993C119.235 98.3775 119.214 98.3533 119.223 98.329C119.239 98.3072 119.29 98.295 119.302 98.2659L121.939 92.4655L126.878 95.6168L128.995 99.1951C129.008 99.2169 129.041 99.2266 129.062 99.2436C129.075 99.2581 129.058 99.2751 129.066 99.2897L132.6 103.276V103.278L135.791 107.167L146.238 122.765L152.765 133.803L152.43 148.997L150.921 154.419C150.908 154.453 150.959 154.475 150.959 154.506C150.959 154.538 150.904 154.569 150.912 154.601L152.438 163.104C152.443 163.128 152.48 163.138 152.485 163.159C152.489 163.181 152.459 163.193 152.472 163.215L153.826 166.151C153.881 166.265 154.011 166.357 154.157 166.437C154.195 166.459 154.182 166.493 154.224 166.51C154.228 166.512 154.241 166.512 154.249 166.512C154.459 166.609 154.719 166.67 154.996 166.67C155.096 166.67 155.201 166.662 155.31 166.648C155.465 166.621 155.545 166.541 155.671 166.488C155.75 166.454 155.855 166.464 155.922 166.415L158.459 164.656C158.496 164.634 158.475 164.6 158.5 164.576C158.555 164.535 158.626 164.506 158.664 164.462L160.706 161.311L165.778 167.575L164.793 175.806C164.789 175.862 164.864 175.893 164.877 175.949C164.902 176.036 164.936 176.112 165.015 176.192C165.099 176.269 165.191 176.32 165.321 176.376C165.393 176.41 165.418 176.463 165.502 176.483C165.615 176.514 165.736 176.522 165.858 176.531C165.875 176.531 165.887 176.546 165.912 176.546H165.996C166.269 176.546 166.512 176.476 166.722 176.383C166.793 176.349 166.831 176.311 166.885 176.277C166.956 176.228 167.04 176.197 167.09 176.133L171.585 170.284L174.913 169.78C175.006 169.765 175.039 169.71 175.11 169.693C175.265 169.644 175.391 169.598 175.496 169.523C175.588 169.46 175.622 169.401 175.672 169.324C175.71 169.27 175.794 169.241 175.798 169.181L177.999 157.541C178.011 157.468 177.919 157.415 177.898 157.35C177.848 157.274 177.898 157.206 177.844 157.146L177.844 157.148ZM99.8048 53.5026L90.8123 52.6948L80.168 50.9409L89.0557 48.3718L98.6644 47.61C98.744 47.6027 98.7859 47.5615 98.8488 47.5469C99.0333 47.513 99.1968 47.4669 99.3309 47.3844C99.4148 47.3359 99.4567 47.2874 99.507 47.2243C99.5531 47.1709 99.6412 47.1418 99.6621 47.0812L99.8382 46.6542L105.284 48.8521L99.8048 53.5026ZM71.1668 54.4342C71.1542 54.4439 71.1626 54.456 71.1542 54.4657C71.1375 54.4755 71.1123 54.4755 71.0997 54.4876L57.7392 67.3692L57.2822 64.8341L59.8018 54.7497C59.8186 54.672 59.7305 54.6114 59.7054 54.5386C59.6886 54.4731 59.7347 54.4076 59.6802 54.3397C59.6634 54.3178 59.6131 54.3178 59.5964 54.2984C59.5125 54.2184 59.3868 54.1796 59.2526 54.1238C59.1185 54.068 59.0178 54.0122 58.8669 53.9928C58.825 53.9903 58.8124 53.9661 58.7705 53.9612C58.6363 53.9515 58.5483 54 58.4225 54.0098C58.301 54.0195 58.1752 53.9928 58.062 54.0243L57.0475 54.3154L51.4801 55.834L48.8474 55.1499L44.6341 52.3334C44.6299 52.3309 44.6174 52.3309 44.6048 52.3261C44.6006 52.3237 44.6048 52.3115 44.5922 52.3091L40.7018 49.9608H40.6976C40.597 49.905 40.4376 49.8953 40.3077 49.8638C40.1442 49.8225 40.0017 49.7595 39.8256 49.7619C39.8088 49.7619 39.7962 49.7522 39.7795 49.7522L34.1701 49.9123L32.38 45.776H32.3758L30.875 41.1231C30.8708 41.1061 30.8373 41.0988 30.8289 41.0818C30.7996 41.0091 30.7031 40.9605 30.6319 40.895C30.5312 40.8053 30.4474 40.7179 30.2839 40.6646C30.2587 40.6573 30.2546 40.6379 30.2294 40.6306L26.2802 39.4904L22.3898 32.9111L32.0363 22.9161L56.6958 30.4245C56.8718 30.4803 57.0689 30.5045 57.2533 30.5045C57.5342 30.5045 57.7816 30.4318 57.9996 30.3226C58.0666 30.2959 58.1002 30.2668 58.1505 30.2328C58.205 30.194 58.2763 30.1746 58.314 30.1309C58.3601 30.0776 58.3182 30.0242 58.3433 29.9684C58.3685 29.9102 58.4565 29.8714 58.4565 29.8083V28.7651L68.1742 33.52L72.6474 43.7721C72.6516 43.7818 72.6726 43.7867 72.6768 43.7988C72.7019 43.8449 72.769 43.8691 72.8026 43.9055C72.9116 44.0171 73.0289 44.1142 73.2092 44.1772C73.2386 44.1869 73.2469 44.2112 73.2805 44.2233C73.4482 44.2718 73.6368 44.2961 73.8171 44.2961C73.9135 44.2961 74.0099 44.2888 74.1106 44.2743C74.1525 44.2718 74.1692 44.2427 74.207 44.233C74.4292 44.1869 74.6052 44.1117 74.752 44.0001C74.7897 43.9759 74.8316 43.9613 74.861 43.9346C74.8652 43.9274 74.8903 43.9249 74.8987 43.9128L77.0997 41.3631L88.9137 44.2427C89.0563 44.2767 89.2198 44.2985 89.3749 44.2985C89.6642 44.2985 89.9157 44.2257 90.1337 44.1166C90.2008 44.085 90.2343 44.0511 90.2846 44.0098C90.3517 43.9613 90.4397 43.9322 90.4817 43.8715C90.5194 43.823 90.4649 43.7769 90.4817 43.7284C90.4984 43.6799 90.5781 43.6508 90.5781 43.5998V41.8823L94.5147 43.6411L97.8518 45.4848L97.5206 46.2975L88.5281 47.0107C88.4569 47.0131 88.4191 47.0568 88.352 47.0689C88.285 47.0786 88.2179 47.0592 88.155 47.0762L76.3205 50.4992C76.308 50.4992 76.308 50.5065 76.3038 50.5089C76.2115 50.5356 76.178 50.5914 76.1109 50.6302C76.0397 50.6617 75.9475 50.6617 75.893 50.703L71.1668 54.4342ZM83.144 6.62147L83.3243 6.71123L82.8002 6.60935L83.144 6.62147ZM20.4022 40.3254C20.3854 40.2793 20.3016 40.2526 20.2764 40.2114C20.18 40.0828 20.0794 39.9566 19.8907 39.8839H19.8865C19.8069 39.8572 19.7188 39.8766 19.635 39.8572C19.4379 39.8111 19.2367 39.7602 19.0019 39.7844C19.0019 39.7844 18.9977 39.7868 18.9894 39.7868C18.8384 39.8038 18.7294 39.8839 18.5995 39.9397C18.4737 39.9882 18.3186 40.0124 18.2348 40.0852C18.2348 40.0852 18.2306 40.0852 18.2306 40.0877L15.8787 42.1837L12.4369 36.046C12.4243 36.0291 12.3824 36.0218 12.3698 36.0048C12.3572 35.9878 12.3824 35.966 12.3656 35.9466L7.51097 30.4203L10.911 23.9379C10.9361 23.8918 10.8816 23.8554 10.8858 23.8069C10.9026 23.7171 10.8858 23.6443 10.8439 23.557C10.802 23.4672 10.7433 23.3993 10.6468 23.3265C10.6007 23.2926 10.6049 23.2441 10.5462 23.2125C10.475 23.1786 10.3827 23.1907 10.3115 23.1664C10.2276 23.1422 10.1983 23.0888 10.1144 23.0718C10.0348 23.0573 9.97188 23.0888 9.89222 23.0864C9.72873 23.0767 9.59876 23.0864 9.43527 23.1106C9.29692 23.1349 9.18792 23.1664 9.06215 23.2174C8.99508 23.2441 8.90704 23.2416 8.85254 23.2804L4.94536 25.9005L7.23016 21.8492L14.1097 19.4402C14.2355 19.399 14.2606 19.3141 14.3445 19.2559C14.399 19.2219 14.487 19.234 14.529 19.1928L19.0986 14.6029C19.1027 14.6005 19.0986 14.5932 19.0986 14.5859C19.1111 14.5835 19.1153 14.5787 19.1237 14.5762L22.3517 10.9349L28.812 8.68846C28.8581 8.6739 28.8581 8.63994 28.9042 8.6181C28.9504 8.59627 29.0132 8.6084 29.0468 8.58414L36.6935 4.1568L45.6483 1.43005L51.7187 2.9608C51.8738 3.00204 52.0415 3.01902 52.2008 3.01902C52.3643 3.01902 52.5362 2.99719 52.6955 2.95595L58.5899 1.43005L64.5471 3.20101L71.0661 6.10245C71.217 6.1728 71.4015 6.18251 71.5818 6.20434C71.6404 6.21162 71.674 6.24316 71.7243 6.24558L77.4258 6.43723C77.4006 6.52699 77.4216 6.59977 77.4635 6.69196C77.5013 6.78171 77.5474 6.84964 77.6396 6.92485C77.6857 6.95881 77.6773 7.0049 77.7318 7.03644L84.3304 10.6559C84.3598 10.6729 84.4101 10.6656 84.4436 10.6802C84.4814 10.6947 84.4814 10.7263 84.5149 10.7384L94.4926 14.4113L91.4867 14.5472C91.4029 14.5496 91.3609 14.5957 91.2771 14.6102C91.1932 14.6199 91.1136 14.6005 91.0381 14.6199C90.9585 14.6418 90.9459 14.6927 90.8872 14.7243C90.7614 14.7825 90.6776 14.8383 90.5979 14.9183C90.5141 14.9984 90.4764 15.0687 90.4596 15.1609C90.447 15.2094 90.3799 15.241 90.3883 15.2919C90.3925 15.3453 90.4722 15.3744 90.5015 15.4229C90.5183 15.469 90.4847 15.5103 90.5183 15.5539L94.2368 19.7581C94.3206 19.8527 94.4548 19.9158 94.5931 19.9764C94.6183 19.9861 94.6183 20.0104 94.6476 20.0225L102.785 23.1398L98.9069 25.0806C98.8105 25.1291 98.8105 25.2019 98.7518 25.2625C98.6848 25.3207 98.5758 25.3523 98.5422 25.4226C98.5296 25.4469 98.559 25.4687 98.559 25.493C98.5213 25.5827 98.5716 25.6628 98.6051 25.755C98.6428 25.8447 98.6596 25.9224 98.7434 25.9976C98.7686 26.0194 98.756 26.0461 98.7854 26.0679C98.8566 26.1164 98.9656 26.1067 99.0495 26.1407C99.1711 26.1868 99.2298 26.262 99.3723 26.2863L104.235 27.065L98.6679 28.6103C98.6302 28.62 98.626 28.6443 98.5967 28.6564C98.5589 28.6661 98.517 28.6564 98.4877 28.671C98.3787 28.7171 98.3661 28.7923 98.2948 28.8481C98.1984 28.9209 98.0978 28.9791 98.06 29.0713C98.0181 29.1537 98.06 29.2314 98.0852 29.3187C98.0978 29.3915 98.0433 29.4643 98.102 29.537C98.1187 29.5613 98.169 29.571 98.1942 29.5928C98.2068 29.6074 98.1942 29.6244 98.211 29.6389L102.298 32.9649L95.0207 31.5142C95.0039 31.5118 94.9788 31.5167 94.9536 31.5142C94.8111 31.49 94.6644 31.5215 94.5134 31.5288C94.3583 31.5385 94.1948 31.5264 94.0607 31.57C94.0355 31.5725 94.0187 31.57 94.002 31.5725C93.8762 31.6185 93.8469 31.701 93.7546 31.7641C93.6624 31.8272 93.5324 31.8611 93.4821 31.9412C93.4779 31.9509 93.4947 31.963 93.4821 31.9727C93.4444 32.0552 93.4989 32.1353 93.5115 32.2275C93.5282 32.3221 93.5073 32.4143 93.5911 32.4992C93.5953 32.5064 93.5869 32.521 93.5953 32.5307L99.955 38.6271L102.231 42.3509L95.7041 42.4237L90.12 39.9347C90.0068 39.8862 89.8726 39.9007 89.7469 39.8765C89.6211 39.8522 89.5247 39.7891 89.3821 39.7891C89.3528 39.7891 89.336 39.8061 89.3109 39.8061C89.1558 39.8134 89.0342 39.8643 88.8958 39.908C88.7533 39.9492 88.6066 39.9711 88.506 40.039C88.4808 40.0536 88.4515 40.0487 88.4347 40.0633C88.3508 40.1263 88.376 40.2015 88.3341 40.2743C88.288 40.3471 88.1831 40.4053 88.1831 40.4902V42.5766L76.998 39.8498C76.8722 39.8183 76.7381 39.8522 76.6081 39.8498C76.4404 39.8425 76.277 39.8158 76.1218 39.8498C76.0003 39.8741 75.9415 39.9444 75.8409 39.9929C75.7152 40.056 75.5391 40.09 75.4678 40.1846L75.4301 40.2258L74.2143 41.6377L70.4413 32.9916C70.3994 32.9091 70.2778 32.8654 70.2023 32.7975C70.1353 32.7417 70.1437 32.6713 70.0514 32.6301L58.057 26.7593C57.9439 26.7035 57.7971 26.7132 57.6714 26.6866C57.5456 26.6599 57.4366 26.5919 57.2857 26.5919C57.2605 26.5919 57.2563 26.6017 57.2395 26.6017C57.0886 26.6041 56.9796 26.6647 56.8413 26.6963C56.6904 26.7351 56.5227 26.7521 56.4221 26.8248C56.4095 26.8321 56.3843 26.8273 56.3759 26.8394C56.2837 26.9025 56.3047 26.9825 56.2544 27.0504C56.1957 27.1305 56.0867 27.196 56.0867 27.2858V28.6758L32.186 21.3954C32.1818 21.3954 32.1818 21.3929 32.1818 21.3929H32.1692L32.1231 21.3638C31.9805 21.3153 31.8087 21.342 31.6493 21.3372C31.511 21.3299 31.3685 21.2886 31.2343 21.3129C31.0666 21.3396 30.9576 21.4318 30.8277 21.4997C30.727 21.5531 30.5929 21.57 30.5216 21.638L20.0409 32.4963C20.0367 32.5035 20.0409 32.5108 20.0367 32.5181C19.9697 32.5909 20.0074 32.6782 19.9906 32.7607C19.9739 32.8577 19.9068 32.9475 19.9529 33.0421C19.9571 33.0494 19.9487 33.0566 19.9529 33.0639L24.1787 40.2034C24.2793 40.3708 24.4931 40.4897 24.7363 40.5649C24.753 40.5722 24.7614 40.5891 24.7824 40.5964L28.6477 41.7124L29.9809 45.8413L27.3649 48.9198L27.0169 46.2804C27.0169 46.2658 26.9876 46.2561 26.9792 46.2416C26.8995 45.8898 26.4845 45.6302 25.7718 45.6496C25.6209 45.6521 25.4993 45.7127 25.3652 45.7467C25.2101 45.7879 25.0172 45.8097 24.9082 45.8849L22.8037 47.3259L20.4183 40.3318C20.4099 40.3269 20.4015 40.3269 20.4015 40.3245L20.4022 40.3254ZM55.9281 129.613L70.4799 126.461L93.3075 126.747L117.769 129.106L118.528 131.301L107.18 131.92C107.138 131.92 107.125 131.941 107.084 131.946C107.046 131.949 107.017 131.932 106.983 131.939L78.9278 136.238C78.8984 136.245 78.8901 136.262 78.8607 136.265C78.8356 136.272 78.8062 136.257 78.781 136.265L48.5215 143.251L47.1757 132.873L55.9281 129.613ZM156.69 273.495L149.286 277.336L134.831 279.929C134.764 279.944 134.739 279.985 134.68 280.002C134.622 280.016 134.554 280.002 134.5 280.024L114.004 288.42L96.9114 288.786L95.8256 287.918L99.1668 286.656C99.192 286.649 99.192 286.63 99.213 286.618C99.2381 286.608 99.2716 286.61 99.2968 286.601L105.552 283.464C105.589 283.447 105.581 283.415 105.61 283.394C105.682 283.352 105.774 283.321 105.828 283.265L112.096 276.489L127.704 271.019C127.741 271.004 127.741 270.978 127.771 270.963C127.809 270.949 127.863 270.956 127.892 270.936L139.585 264.816L155.415 269.806L156.69 273.495ZM66.6979 306.25L80.6831 308.184L80.4651 308.523C80.4525 308.54 80.4777 308.562 80.4693 308.582C80.4274 308.669 80.4651 308.751 80.4861 308.839C80.5028 308.933 80.4986 309.016 80.5825 309.096C80.5951 309.118 80.5825 309.137 80.5993 309.152L83.9028 311.966L83.1985 315.287L58.2245 320.139C58.1951 320.146 58.1826 320.166 58.1574 320.173C58.1197 320.18 58.0903 320.17 58.061 320.18L37.146 326.226L17.6723 323.737L17.0351 322.266L20.695 320.772L32.4168 319.724C32.5006 319.717 32.5383 319.668 32.6096 319.654C32.7354 319.627 32.8821 319.627 32.9869 319.576L47.8693 312.635C47.8987 312.618 47.8987 312.589 47.9238 312.577C47.9532 312.56 47.9951 312.567 48.0244 312.55L55.6879 307.449L66.6979 306.25ZM116.984 97.8226L112.628 102.956C112.603 102.987 112.632 103.019 112.615 103.051C112.599 103.082 112.532 103.104 112.519 103.138L109.983 111.35C109.966 111.415 110.041 111.464 110.054 111.527C110.054 111.585 109.995 111.634 110.029 111.697L116.627 123.045C116.64 123.062 116.665 123.069 116.674 123.084C116.686 123.098 116.674 123.111 116.678 123.123L120.292 127.548L118.724 127.783L93.6199 125.367C93.5821 125.359 93.5612 125.381 93.5276 125.376C93.4899 125.374 93.4731 125.352 93.4354 125.352L70.2773 125.064C70.2731 125.061 70.2606 125.061 70.2522 125.061C70.1683 125.061 70.118 125.102 70.0468 125.114C69.9671 125.122 69.9084 125.093 69.8288 125.112L54.9463 128.339C54.9002 128.346 54.8876 128.38 54.8457 128.394C54.8038 128.404 54.7535 128.392 54.72 128.409L45.4172 131.868L42.8096 132.288L42.5497 129.183L46.763 99.5038C46.7672 99.448 46.6959 99.4165 46.6791 99.3607C46.6623 99.2709 46.6246 99.1981 46.5533 99.1181C46.4695 99.038 46.3773 98.9895 46.2515 98.9313C46.1802 98.8997 46.1593 98.8415 46.0754 98.8197L38.8521 96.8692L31.7127 88.3249L42.3485 77.7213L50.9678 70.1961C51.0056 70.1694 50.972 70.1331 50.9972 70.1064C51.0265 70.0724 51.0978 70.0506 51.1187 70.0093L55.8476 60.7589L54.8624 64.7229C54.8582 64.7544 54.9043 64.7787 54.9043 64.8054C54.9002 64.8369 54.8498 64.8588 54.8582 64.8879L55.7051 69.5893C55.7051 69.6112 55.7428 69.6209 55.7512 69.6379C55.768 69.7106 55.8518 69.7567 55.9063 69.8198C55.9985 69.9144 56.0614 70.0017 56.2207 70.0624C56.2501 70.0769 56.2501 70.1012 56.2878 70.1158C56.4806 70.1861 56.6902 70.2176 56.9082 70.2176C56.9502 70.2176 56.9921 70.2176 57.034 70.2152C57.4071 70.1934 57.6838 70.0697 57.8767 69.9047C57.8934 69.8901 57.9354 69.8974 57.9479 69.8829L73.1362 55.23L77.3328 51.9332L90.2243 54.0535C90.2663 54.0607 90.3082 54.0607 90.3501 54.0632C90.3627 54.0632 90.3627 54.0704 90.3753 54.0704L100.185 54.9511C100.244 54.9535 100.311 54.9583 100.365 54.9583C100.73 54.9583 101.019 54.8443 101.242 54.6866C101.271 54.6697 101.325 54.6769 101.355 54.6527L107.262 49.6455L117.432 53.6556C117.445 53.658 117.457 53.6556 117.47 53.6629C117.483 53.6653 117.483 53.6774 117.495 53.6799L132.936 59.0072L140.423 78.1769C140.436 78.1987 140.469 78.2084 140.478 78.2303C140.49 78.2448 140.465 78.2618 140.478 78.2788L149.089 91.1194L146.854 93.9675L133.954 101.781L131.221 98.6956L129.049 95.0154C129.02 94.962 128.927 94.9499 128.885 94.9087C128.844 94.8626 128.86 94.8141 128.802 94.7777L122.203 90.5735C122.119 90.5177 121.993 90.5202 121.884 90.491C121.788 90.4522 121.733 90.3892 121.612 90.3722C121.566 90.3649 121.528 90.3867 121.486 90.3795C121.331 90.3649 121.197 90.394 121.042 90.4183C120.891 90.4425 120.761 90.4498 120.635 90.5007C120.597 90.5177 120.539 90.508 120.509 90.5274C120.413 90.5759 120.413 90.6487 120.358 90.7118C120.304 90.7749 120.191 90.7991 120.161 90.8695L116.984 97.8226ZM148.472 122.286C148.468 122.279 148.477 122.276 148.472 122.272L137.992 106.622C137.987 106.612 137.962 106.607 137.962 106.6C137.95 106.59 137.962 106.578 137.958 106.573L135.099 103.092L147.516 95.5695L151.842 100.909C151.855 100.926 151.884 100.933 151.897 100.948C151.91 100.958 151.897 100.972 151.91 100.987L160.097 108.614L162.562 114.7L167.958 148.509C167.962 148.557 168.041 148.586 168.067 148.63C168.083 148.671 168.041 148.71 168.079 148.751L175.525 157.567L173.45 168.537L170.368 169C170.343 169.008 170.33 169.022 170.309 169.027C170.171 169.054 170.083 169.122 169.953 169.185C169.832 169.243 169.693 169.282 169.622 169.369C169.609 169.379 169.58 169.384 169.567 169.396L167.601 171.948L168.142 167.472C168.146 167.402 168.062 167.365 168.046 167.302C168.021 167.239 168.075 167.188 168.029 167.125L161.615 159.219V159.212L161.61 159.205C161.569 159.149 161.468 159.134 161.401 159.098C161.267 159.003 161.162 158.897 160.948 158.855H160.936C160.827 158.833 160.718 158.865 160.604 158.863C160.407 158.855 160.206 158.829 160.022 158.877H160.009C159.854 158.918 159.791 159.013 159.686 159.086C159.586 159.151 159.447 159.18 159.393 159.268L156.425 163.85L155.511 164.486L154.785 162.907L153.285 154.532L154.785 149.152C154.79 149.13 154.76 149.118 154.76 149.103C154.765 149.081 154.802 149.069 154.802 149.047L155.138 133.689C155.138 133.643 155.071 133.616 155.054 133.575C155.05 133.534 155.096 133.497 155.071 133.456L148.476 122.302C148.489 122.294 148.476 122.289 148.472 122.287L148.472 122.286Z" fill="black"/>
<path d="M50.3237 139.951C50.986 139.951 51.5269 139.638 51.5269 139.26V134.755C51.5269 134.369 50.986 134.057 50.3237 134.057C49.6613 134.057 49.1205 134.369 49.1205 134.755V139.26C49.1205 139.641 49.6613 139.951 50.3237 139.951Z" fill="black"/>
<path d="M86.7382 85.0326L72.225 95.9085H55.3969C54.7345 95.9085 54.1937 96.2214 54.1937 96.6072C54.1937 96.9856 54.7345 97.2986 55.3969 97.2986H72.8077C73.1725 97.2986 73.4701 97.1967 73.6923 97.0487C73.7091 97.0341 73.7384 97.0414 73.7594 97.0269L88.6418 85.8796C89.0442 85.5764 88.9562 85.1397 88.4238 84.9092C87.8997 84.6739 87.1368 84.7297 86.7385 85.033L86.7382 85.0326Z" fill="black"/>
</svg>
