<?xml version="1.0" encoding="UTF-8"?>
<svg width="700pt" height="700pt" version="1.1" viewBox="0 0 700 700" xmlns="http://www.w3.org/2000/svg" xmlns:xlink="http://www.w3.org/1999/xlink">
 <defs>
  <symbol id="w" overflow="visible">
   <path d="m18.766-1.125c-0.96875 0.5-1.9805 0.875-3.0312 1.125-1.043 0.25781-2.1367 0.39062-3.2812 0.39062-3.3984 0-6.0898-0.94531-8.0781-2.8438-1.9922-1.9062-2.9844-4.4844-2.9844-7.7344 0-3.2578 0.99219-5.8359 2.9844-7.7344 1.9883-1.9062 4.6797-2.8594 8.0781-2.8594 1.1445 0 2.2383 0.13281 3.2812 0.39062 1.0508 0.25 2.0625 0.625 3.0312 1.125v4.2188c-0.98047-0.65625-1.9453-1.1406-2.8906-1.4531-0.94922-0.3125-1.9492-0.46875-3-0.46875-1.875 0-3.3516 0.60547-4.4219 1.8125-1.0742 1.1992-1.6094 2.8555-1.6094 4.9688 0 2.1055 0.53516 3.7617 1.6094 4.9688 1.0703 1.1992 2.5469 1.7969 4.4219 1.7969 1.0508 0 2.0508-0.14844 3-0.45312 0.94531-0.3125 1.9102-0.80078 2.8906-1.4688z"/>
  </symbol>
  <symbol id="a" overflow="visible">
   <path d="m13.734-11.141c-0.4375-0.19531-0.87109-0.34375-1.2969-0.4375-0.41797-0.10156-0.83984-0.15625-1.2656-0.15625-1.2617 0-2.2305 0.40625-2.9062 1.2188-0.67969 0.80469-1.0156 1.9531-1.0156 3.4531v7.0625h-4.8906v-15.312h4.8906v2.5156c0.625-1 1.3438-1.7266 2.1562-2.1875 0.82031-0.46875 1.8008-0.70312 2.9375-0.70312 0.16406 0 0.34375 0.011719 0.53125 0.03125 0.19531 0.011719 0.47656 0.039062 0.84375 0.078125z"/>
  </symbol>
  <symbol id="b" overflow="visible">
   <path d="m17.641-7.7031v1.4062h-11.453c0.125 1.1484 0.53906 2.0078 1.25 2.5781 0.70703 0.57422 1.7031 0.85938 2.9844 0.85938 1.0312 0 2.082-0.14844 3.1562-0.45312 1.082-0.3125 2.1914-0.77344 3.3281-1.3906v3.7656c-1.1562 0.4375-2.3125 0.76562-3.4688 0.98438-1.1562 0.22656-2.3125 0.34375-3.4688 0.34375-2.7734 0-4.9297-0.70312-6.4688-2.1094-1.5312-1.4062-2.2969-3.3789-2.2969-5.9219 0-2.5 0.75391-4.4609 2.2656-5.8906 1.5078-1.4375 3.582-2.1562 6.2188-2.1562 2.4062 0 4.332 0.73047 5.7812 2.1875 1.4453 1.4492 2.1719 3.3828 2.1719 5.7969zm-5.0312-1.625c0-0.92578-0.27344-1.6719-0.8125-2.2344-0.54297-0.57031-1.25-0.85938-2.125-0.85938-0.94922 0-1.7188 0.26562-2.3125 0.79688s-0.96484 1.2969-1.1094 2.2969z"/>
  </symbol>
  <symbol id="e" overflow="visible">
   <path d="m9.2188-6.8906c-1.0234 0-1.793 0.17188-2.3125 0.51562-0.51172 0.34375-0.76562 0.85547-0.76562 1.5312 0 0.625 0.20703 1.1172 0.625 1.4688 0.41406 0.34375 0.98828 0.51562 1.7188 0.51562 0.92578 0 1.7031-0.32812 2.3281-0.98438 0.63281-0.66406 0.95312-1.4922 0.95312-2.4844v-0.5625zm7.4688-1.8438v8.7344h-4.9219v-2.2656c-0.65625 0.92969-1.3984 1.6055-2.2188 2.0312-0.82422 0.41406-1.8242 0.625-3 0.625-1.5859 0-2.8711-0.45703-3.8594-1.375-0.99219-0.92578-1.4844-2.1289-1.4844-3.6094 0-1.7891 0.61328-3.1016 1.8438-3.9375 1.2383-0.84375 3.1797-1.2656 5.8281-1.2656h2.8906v-0.39062c0-0.76953-0.30859-1.332-0.92188-1.6875-0.61719-0.36328-1.5703-0.54688-2.8594-0.54688-1.0547 0-2.0312 0.10547-2.9375 0.3125-0.89844 0.21094-1.7305 0.52344-2.5 0.9375v-3.7344c1.0391-0.25 2.0859-0.44141 3.1406-0.57812 1.0625-0.13281 2.125-0.20312 3.1875-0.20312 2.7578 0 4.75 0.54688 5.9688 1.6406 1.2266 1.0859 1.8438 2.8555 1.8438 5.3125z"/>
  </symbol>
  <symbol id="d" overflow="visible">
   <path d="m7.7031-19.656v4.3438h5.0469v3.5h-5.0469v6.5c0 0.71094 0.14062 1.1875 0.42188 1.4375s0.83594 0.375 1.6719 0.375h2.5156v3.5h-4.1875c-1.9375 0-3.3125-0.39844-4.125-1.2031-0.80469-0.8125-1.2031-2.1797-1.2031-4.1094v-6.5h-2.4219v-3.5h2.4219v-4.3438z"/>
  </symbol>
  <symbol id="j" overflow="visible">
   <path d="m12.766-13.078v-8.2031h4.9219v21.281h-4.9219v-2.2188c-0.66797 0.90625-1.4062 1.5703-2.2188 1.9844s-1.7578 0.625-2.8281 0.625c-1.8867 0-3.4336-0.75-4.6406-2.25-1.2109-1.5-1.8125-3.4258-1.8125-5.7812 0-2.3633 0.60156-4.2969 1.8125-5.7969 1.207-1.5 2.7539-2.25 4.6406-2.25 1.0625 0 2 0.21484 2.8125 0.64062 0.82031 0.42969 1.5664 1.0859 2.2344 1.9688zm-3.2188 9.9219c1.0391 0 1.8359-0.37891 2.3906-1.1406 0.55078-0.76953 0.82812-1.8828 0.82812-3.3438 0-1.457-0.27734-2.5664-0.82812-3.3281-0.55469-0.76953-1.3516-1.1562-2.3906-1.1562-1.043 0-1.8398 0.38672-2.3906 1.1562-0.55469 0.76172-0.82812 1.8711-0.82812 3.3281 0 1.4609 0.27344 2.5742 0.82812 3.3438 0.55078 0.76172 1.3477 1.1406 2.3906 1.1406z"/>
  </symbol>
  <symbol id="f" overflow="visible">
   <path d="m10.5-3.1562c1.0508 0 1.8516-0.37891 2.4062-1.1406 0.55078-0.76953 0.82812-1.8828 0.82812-3.3438 0-1.457-0.27734-2.5664-0.82812-3.3281-0.55469-0.76953-1.3555-1.1562-2.4062-1.1562-1.0547 0-1.8594 0.38672-2.4219 1.1562-0.55469 0.77344-0.82812 1.8828-0.82812 3.3281 0 1.4492 0.27344 2.5586 0.82812 3.3281 0.5625 0.77344 1.3672 1.1562 2.4219 1.1562zm-3.25-9.9219c0.67578-0.88281 1.4219-1.5391 2.2344-1.9688 0.82031-0.42578 1.7656-0.64062 2.8281-0.64062 1.8945 0 3.4453 0.75 4.6562 2.25 1.207 1.5 1.8125 3.4336 1.8125 5.7969 0 2.3555-0.60547 4.2812-1.8125 5.7812-1.2109 1.5-2.7617 2.25-4.6562 2.25-1.0625 0-2.0078-0.21094-2.8281-0.625-0.8125-0.42578-1.5586-1.0859-2.2344-1.9844v2.2188h-4.8906v-21.281h4.8906z"/>
  </symbol>
  <symbol id="i" overflow="visible">
   <path d="m0.34375-15.312h4.8906l4.125 10.391 3.5-10.391h4.8906l-6.4375 16.766c-0.64844 1.6953-1.4023 2.8828-2.2656 3.5625-0.86719 0.6875-2 1.0312-3.4062 1.0312h-2.8438v-3.2188h1.5312c0.83203 0 1.4375-0.13672 1.8125-0.40625 0.38281-0.26172 0.67969-0.73047 0.89062-1.4062l0.14062-0.42188z"/>
  </symbol>
  <symbol id="h" overflow="visible">
   <path d="m2.5781-20.406h5.25v16.422h9.25v3.9844h-14.5z"/>
  </symbol>
  <symbol id="v" overflow="visible">
   <path d="m2.3594-21.281h4.8906v21.281h-4.8906z"/>
  </symbol>
  <symbol id="g" overflow="visible">
   <path d="m2.1875-5.9688v-9.3438h4.9219v1.5312c0 0.83594-0.007813 1.875-0.015625 3.125-0.011719 1.25-0.015625 2.0859-0.015625 2.5 0 1.2422 0.03125 2.1328 0.09375 2.6719 0.070313 0.54297 0.17969 0.93359 0.32812 1.1719 0.20703 0.32422 0.47266 0.57422 0.79688 0.75 0.32031 0.16797 0.69141 0.25 1.1094 0.25 1.0195 0 1.8203-0.39062 2.4062-1.1719 0.58203-0.78125 0.875-1.8672 0.875-3.2656v-7.5625h4.8906v15.312h-4.8906v-2.2188c-0.74219 0.89844-1.5234 1.5586-2.3438 1.9844-0.82422 0.41406-1.7344 0.625-2.7344 0.625-1.7617 0-3.1055-0.53906-4.0312-1.625-0.92969-1.082-1.3906-2.6602-1.3906-4.7344z"/>
  </symbol>
  <symbol id="u" overflow="visible">
   <path d="m2.3594-15.312h4.8906v15.312h-4.8906zm0-5.9688h4.8906v4h-4.8906z"/>
  </symbol>
  <symbol id="t" overflow="visible">
   <path d="m14.312-14.828v3.7188c-1.043-0.4375-2.0547-0.76562-3.0312-0.98438-0.98047-0.21875-1.9023-0.32812-2.7656-0.32812-0.92969 0-1.6211 0.11719-2.0781 0.34375-0.44922 0.23047-0.67188 0.58984-0.67188 1.0781 0 0.38672 0.17188 0.68359 0.51562 0.89062 0.34375 0.21094 0.95703 0.36719 1.8438 0.46875l0.85938 0.125c2.5078 0.32422 4.1953 0.85156 5.0625 1.5781 0.86328 0.73047 1.2969 1.8711 1.2969 3.4219 0 1.6367-0.60547 2.8672-1.8125 3.6875-1.1992 0.8125-2.9922 1.2188-5.375 1.2188-1.0234 0-2.0742-0.078125-3.1562-0.23438-1.0742-0.15625-2.1797-0.39453-3.3125-0.71875v-3.7188c0.96875 0.48047 1.9609 0.83984 2.9844 1.0781 1.0312 0.23047 2.0781 0.34375 3.1406 0.34375 0.95703 0 1.6758-0.12891 2.1562-0.39062 0.47656-0.26953 0.71875-0.66406 0.71875-1.1875 0-0.4375-0.16797-0.75781-0.5-0.96875-0.33594-0.21875-0.99609-0.38281-1.9844-0.5l-0.85938-0.10938c-2.1797-0.26953-3.7031-0.77344-4.5781-1.5156-0.875-0.73828-1.3125-1.8594-1.3125-3.3594 0-1.625 0.55078-2.8281 1.6562-3.6094 1.1133-0.78906 2.8203-1.1875 5.125-1.1875 0.89453 0 1.8359 0.074219 2.8281 0.21875 1 0.13672 2.082 0.35156 3.25 0.64062z"/>
  </symbol>
  <symbol id="s" overflow="visible">
   <path d="m2.5781-20.406h5.25v20.406h-5.25z"/>
  </symbol>
  <symbol id="c" overflow="visible">
   <path d="m9.6406-12.188c-1.0859 0-1.9141 0.39062-2.4844 1.1719-0.57422 0.78125-0.85938 1.9062-0.85938 3.375s0.28516 2.5938 0.85938 3.375c0.57031 0.77344 1.3984 1.1562 2.4844 1.1562 1.0625 0 1.875-0.38281 2.4375-1.1562 0.57031-0.78125 0.85938-1.9062 0.85938-3.375s-0.28906-2.5938-0.85938-3.375c-0.5625-0.78125-1.375-1.1719-2.4375-1.1719zm0-3.5c2.6328 0 4.6914 0.71484 6.1719 2.1406 1.4766 1.418 2.2188 3.3867 2.2188 5.9062 0 2.5117-0.74219 4.4805-2.2188 5.9062-1.4805 1.418-3.5391 2.125-6.1719 2.125-2.6484 0-4.7148-0.70703-6.2031-2.125-1.4922-1.4258-2.2344-3.3945-2.2344-5.9062 0-2.5195 0.74219-4.4883 2.2344-5.9062 1.4883-1.4258 3.5547-2.1406 6.2031-2.1406z"/>
  </symbol>
  <symbol id="r" overflow="visible">
   <path d="m12.422-21.281v3.2188h-2.7031c-0.6875 0-1.1719 0.125-1.4531 0.375-0.27344 0.25-0.40625 0.6875-0.40625 1.3125v1.0625h4.1875v3.5h-4.1875v11.812h-4.8906v-11.812h-2.4375v-3.5h2.4375v-1.0625c0-1.6641 0.46094-2.8984 1.3906-3.7031 0.92578-0.80078 2.3672-1.2031 4.3281-1.2031z"/>
  </symbol>
  <symbol id="q" overflow="visible">
   <path d="m16.547-12.766c0.61328-0.94531 1.3477-1.6719 2.2031-2.1719 0.85156-0.5 1.7891-0.75 2.8125-0.75 1.7578 0 3.0977 0.54688 4.0156 1.6406 0.92578 1.0859 1.3906 2.6562 1.3906 4.7188v9.3281h-4.9219v-7.9844-0.35938c0.007813-0.13281 0.015625-0.32031 0.015625-0.5625 0-1.082-0.16406-1.8633-0.48438-2.3438-0.3125-0.48828-0.82422-0.73438-1.5312-0.73438-0.92969 0-1.6484 0.38672-2.1562 1.1562-0.51172 0.76172-0.77344 1.8672-0.78125 3.3125v7.5156h-4.9219v-7.9844c0-1.6953-0.14844-2.7852-0.4375-3.2656-0.29297-0.48828-0.8125-0.73438-1.5625-0.73438-0.9375 0-1.6641 0.38672-2.1719 1.1562-0.51172 0.76172-0.76562 1.8594-0.76562 3.2969v7.5312h-4.9219v-15.312h4.9219v2.2344c0.60156-0.86328 1.2891-1.5156 2.0625-1.9531 0.78125-0.4375 1.6406-0.65625 2.5781-0.65625 1.0625 0 2 0.25781 2.8125 0.76562 0.8125 0.51172 1.4258 1.2305 1.8438 2.1562z"/>
  </symbol>
  <symbol id="p" overflow="visible">
   <path d="m17.75-9.3281v9.3281h-4.9219v-7.1094c0-1.3438-0.03125-2.2656-0.09375-2.7656s-0.16797-0.86719-0.3125-1.1094c-0.1875-0.3125-0.44922-0.55469-0.78125-0.73438-0.32422-0.17578-0.69531-0.26562-1.1094-0.26562-1.0234 0-1.8242 0.39844-2.4062 1.1875-0.58594 0.78125-0.875 1.8711-0.875 3.2656v7.5312h-4.8906v-21.281h4.8906v8.2031c0.73828-0.88281 1.5195-1.5391 2.3438-1.9688 0.83203-0.42578 1.75-0.64062 2.75-0.64062 1.7695 0 3.1133 0.54688 4.0312 1.6406 0.91406 1.0859 1.375 2.6562 1.375 4.7188z"/>
  </symbol>
  <symbol id="o" overflow="visible">
   <path d="m2.5781-20.406h5.875l7.4219 14v-14h4.9844v20.406h-5.875l-7.4219-14v14h-4.9844z"/>
  </symbol>
  <symbol id="n" overflow="visible">
   <path d="m17.75-9.3281v9.3281h-4.9219v-7.1406c0-1.3203-0.03125-2.2344-0.09375-2.7344s-0.16797-0.86719-0.3125-1.1094c-0.1875-0.3125-0.44922-0.55469-0.78125-0.73438-0.32422-0.17578-0.69531-0.26562-1.1094-0.26562-1.0234 0-1.8242 0.39844-2.4062 1.1875-0.58594 0.78125-0.875 1.8711-0.875 3.2656v7.5312h-4.8906v-15.312h4.8906v2.2344c0.73828-0.88281 1.5195-1.5391 2.3438-1.9688 0.83203-0.42578 1.75-0.64062 2.75-0.64062 1.7695 0 3.1133 0.54688 4.0312 1.6406 0.91406 1.0859 1.375 2.6562 1.375 4.7188z"/>
  </symbol>
  <symbol id="m" overflow="visible">
   <path d="m2.5781-20.406h8.7344c2.5938 0 4.582 0.57812 5.9688 1.7344 1.3945 1.1484 2.0938 2.7891 2.0938 4.9219 0 2.1367-0.69922 3.7812-2.0938 4.9375-1.3867 1.1562-3.375 1.7344-5.9688 1.7344h-3.4844v7.0781h-5.25zm5.25 3.8125v5.7031h2.9219c1.0195 0 1.8047-0.25 2.3594-0.75 0.5625-0.5 0.84375-1.2031 0.84375-2.1094 0-0.91406-0.28125-1.6172-0.84375-2.1094-0.55469-0.48828-1.3398-0.73438-2.3594-0.73438z"/>
  </symbol>
  <symbol id="l" overflow="visible">
   <path d="m2.3594-15.312h4.8906v15.031c0 2.0508-0.49609 3.6172-1.4844 4.7031-0.98047 1.082-2.4062 1.625-4.2812 1.625h-2.4219v-3.2188h0.85938c0.92578 0 1.5625-0.21094 1.9062-0.625 0.35156-0.41797 0.53125-1.2461 0.53125-2.4844zm0-5.9688h4.8906v4h-4.8906z"/>
  </symbol>
  <symbol id="k" overflow="visible">
   <path d="m14.719-14.828v3.9844c-0.65625-0.45703-1.3242-0.79688-2-1.0156-0.66797-0.21875-1.3594-0.32812-2.0781-0.32812-1.3672 0-2.4336 0.40234-3.2031 1.2031-0.76172 0.79297-1.1406 1.9062-1.1406 3.3438 0 1.4297 0.37891 2.543 1.1406 3.3438 0.76953 0.79297 1.8359 1.1875 3.2031 1.1875 0.75781 0 1.4844-0.10938 2.1719-0.32812 0.6875-0.22656 1.3203-0.56641 1.9062-1.0156v4c-0.76172 0.28125-1.5391 0.48828-2.3281 0.625-0.78125 0.14453-1.5742 0.21875-2.375 0.21875-2.7617 0-4.9219-0.70703-6.4844-2.125-1.5547-1.4141-2.3281-3.3828-2.3281-5.9062 0-2.5312 0.77344-4.5039 2.3281-5.9219 1.5625-1.4141 3.7227-2.125 6.4844-2.125 0.80078 0 1.5938 0.074219 2.375 0.21875 0.78125 0.13672 1.5547 0.35156 2.3281 0.64062z"/>
  </symbol>
 </defs>
 <g>
  <path d="m434.93 270.26-6.9961-14.309-5.0195-54.293c0-0.035156-0.035156-0.042969-0.039062-0.085938-0.003906-0.023437 0.015625-0.039062 0.011719-0.066406l-2.3633-10.086c-0.015626-0.066407-0.085938-0.09375-0.10547-0.14453-0.027344-0.066407 0-0.12891-0.035157-0.18359l-7.6953-12.398-4.4727-9.5352 2.1523-4.7305c0.078124-0.17188 0.039062-0.37109 0.023437-0.57031-0.011719-0.10156 0.039063-0.19531 0.003906-0.29688l-8.1602-21.027-7.0742-31.258c0-0.003907-0.011718-0.003907-0.011718-0.011719-0.066407-0.28516-0.24219-0.54297-0.50781-0.69922l-14.801-8.8242h-0.003906l-10.328-7.0391h-0.003906l-6.5703-4.5859-0.34766-0.58203s-0.003907 0-0.011719-0.003906c-0.027344-0.042969-0.089844-0.054688-0.11719-0.09375-0.035156-0.039063-0.023437-0.09375-0.0625-0.12891l-1.6562-1.5781 5.3125-0.10547c0.003907 0 0.011719-0.003906 0.015625-0.003906 0.11719-0.003907 0.22266-0.023438 0.33594-0.0625 0.089844-0.027344 0.11719-0.125 0.19141-0.17188 0.125-0.085937 0.22266-0.15625 0.3125-0.28125s0.11719-0.23437 0.14453-0.37891c0.023438-0.089844 0.10156-0.15234 0.10156-0.24609 0-0.066406-0.0625-0.11328-0.078125-0.17187-0.003907-0.0625 0.035156-0.11719 0.011719-0.17969l-2.6836-7.5664c-0.015625-0.039063-0.0625-0.050782-0.085938-0.089844-0.015625-0.039062 0.003906-0.085938-0.015625-0.11719l-4.3906-7.2812 7.168 2.4648c0.11719 0.042969 0.24609 0.0625 0.36328 0.0625 0.23047 0 0.46094-0.074218 0.64453-0.20703h0.003906c0.015625-0.003906 0.011718-0.027344 0.023437-0.039063 0.16797-0.12891 0.3125-0.29687 0.38672-0.50781 0.011719-0.035156-0.011719-0.0625-0.003906-0.10156 0.035156-0.14063-0.003906-0.26172-0.027344-0.41016-0.023438-0.14453-0.015625-0.28516-0.09375-0.41406-0.015625-0.027344-0.003906-0.066407-0.023438-0.09375l-5.0586-7.1133 6.6758-3.2031c0.035156-0.015624 0.039062-0.054687 0.066406-0.074218 0.16797-0.10156 0.28125-0.24609 0.375-0.42188 0.039063-0.066407 0.10547-0.11328 0.125-0.18359 0.003906-0.011719 0.015625-0.015625 0.023438-0.027344 0.039062-0.125-0.039063-0.23438-0.042969-0.35156-0.003906-0.14453 0.042969-0.29297-0.023437-0.42969-0.003907-0.011719-0.027344-0.011719-0.027344-0.027343-0.078125-0.14063-0.21875-0.20703-0.34766-0.30078-0.10547-0.085937-0.17969-0.19531-0.30078-0.23438-0.015625-0.003906-0.023437-0.023437-0.039062-0.027343l-5.3945-1.4961 3.1484-2.7227c0.050781-0.042969 0.042969-0.11719 0.085938-0.16797 0.035156-0.035157 0.09375-0.023438 0.11719-0.0625 0.054687-0.085938 0.023437-0.18359 0.054687-0.28125 0.050782-0.14062 0.089844-0.25781 0.078126-0.41016-0.003907-0.14453-0.0625-0.25391-0.125-0.38672-0.042969-0.089844-0.023438-0.19531-0.09375-0.27344-0.039063-0.042968-0.10156-0.035156-0.14063-0.074218-0.039062-0.039063-0.039062-0.10156-0.089843-0.12891l-8.5742-5.668-2.5391-5.0312 4.4688-0.34766c0.34766-0.027344 0.60547-0.21875 0.79687-0.47656 0.015626-0.023438 0.050782-0.011719 0.066407-0.035156 0.074219-0.11328 0.035156-0.23438 0.066406-0.35938 0.027344-0.11719 0.11719-0.20703 0.10547-0.33203-0.003906-0.027343-0.035156-0.042969-0.039063-0.074219-0.023437-0.16797-0.125-0.28516-0.22266-0.42578-0.074219-0.10547-0.10547-0.21875-0.20312-0.29297-0.023438-0.015624-0.023438-0.050781-0.050781-0.066406l-12.035-7.6562-2.4062-2.2773 4.6641 1.5586c0.11719 0.039063 0.24219 0.054688 0.35156 0.054688 0.29687 0 0.54297-0.14453 0.75-0.34766 0.027343-0.023438 0.074218-0.011719 0.10156-0.042969 0.039062-0.042969 0.023438-0.11328 0.054688-0.16406 0.050781-0.078125 0.125-0.125 0.15625-0.21875 0.023437-0.074218-0.023438-0.14062-0.015626-0.21875 0.023438-0.15234 0.015626-0.27344-0.027343-0.42188-0.039063-0.14062-0.09375-0.24609-0.18359-0.35938-0.042969-0.0625-0.039063-0.15234-0.10156-0.20312l-4.7266-4.0898c-0.10547-0.089844-0.23438-0.074219-0.34766-0.11719-0.11328-0.042969-0.19141-0.14453-0.32031-0.15234l-10.68-0.61719-5.8672-4.5117c-0.035156-0.023438-0.078125-0.003906-0.11328-0.027344-0.035156-0.015625-0.035156-0.0625-0.066406-0.078125l-6.1445-3.1484c-0.023438-0.011719-0.042969 0-0.066407-0.003906-0.14062-0.066407-0.29297-0.035157-0.44141-0.039063-0.13281 0-0.25781-0.035156-0.37891 0.011719-0.023438 0.011718-0.054688-0.003906-0.078125 0l-5.5312 2.4766-5.6914-2.4766c-0.023438-0.003906-0.039063 0.003906-0.0625 0-0.14453-0.054688-0.29688-0.015625-0.45313-0.003906-0.14062 0.011718-0.26953-0.015626-0.39062 0.039062-0.015626 0.003906-0.042969-0.003906-0.0625 0.003906l-8.9766 4.7227c-0.054687 0.027344-0.0625 0.09375-0.10547 0.12891-0.054687 0.035156-0.11719 0.023437-0.16797 0.066406l-7.1523 7.1523-6.1719 3.707c-0.10156 0.054688-0.11719 0.17188-0.18359 0.25391-0.074219 0.078125-0.18359 0.10156-0.23438 0.19531l-3.1289 6.0977-4.1133 7.1523-6.4453 3.9023c-0.003906 0-0.003906 0.003907-0.011719 0.003907l-0.0625 0.039062c-0.10547 0.0625-0.125 0.18359-0.19531 0.26953-0.10547 0.11328-0.24219 0.18359-0.29297 0.33984l-2.3516 7.2109-2.3477 5.7852c-0.035156 0.089844 0.015625 0.17188 0 0.26172-0.023437 0.14453-0.027343 0.26172 0.003907 0.41016 0.039062 0.14453 0.10156 0.24609 0.18359 0.37109 0.050781 0.074219 0.042969 0.16797 0.11719 0.23047 0.054687 0.042968 0.12891 0.035156 0.18359 0.074218 0.054688 0.027344 0.066407 0.10156 0.125 0.11719 0.13281 0.054687 0.28125 0.085937 0.42188 0.085937 0.29297 0 0.53906-0.14062 0.74609-0.33984 0.035157-0.027344 0.078125-0.015626 0.10547-0.042969l4.5703-5.293-1.7578 5.7852v0.003906l-0.003906 0.015626c-0.039063 0.125 0.035156 0.23047 0.035156 0.34766 0.003906 0.16406-0.042969 0.33203 0.039062 0.48047l4.6875 9.2227 3.9102 12.027c0.085937 0.24609 0.24609 0.44141 0.44141 0.57813 0.011719 0.003906 0.011719 0.011718 0.015625 0.015624 0.18359 0.11719 0.39844 0.17969 0.60547 0.17969 0.11719 0 0.23047-0.015625 0.34766-0.054688 0.19141-0.0625 0.30078-0.22266 0.42969-0.36328 0.042969-0.050781 0.125-0.035156 0.16406-0.089843l1.9648-3.0312 2.1406 10.832c0.042968 0.23047 0.17969 0.41016 0.33984 0.55859 0.023437 0.023438 0.011718 0.054688 0.039062 0.078126h0.003906c0.20312 0.16406 0.44922 0.26172 0.71875 0.26172 0.074219 0 0.14062-0.003906 0.21875-0.023437 0.16797-0.035157 0.27344-0.16797 0.40234-0.26953 0.074219-0.050782 0.16797-0.035157 0.23047-0.10547l1.7031-2.0117 0.42578 5.6211c0.003906 0.050781 0.054687 0.085937 0.066406 0.12891 0.027344 0.13281 0.089844 0.23047 0.16406 0.33984 0.085937 0.13281 0.15625 0.24219 0.29297 0.33203 0.042969 0.035156 0.050782 0.09375 0.10547 0.11719 0.15625 0.078126 0.33203 0.11719 0.49219 0.11719 0.027343 0 0.054687 0 0.089843-0.003906 0.035157-0.003906 0.054688-0.039063 0.089844-0.042969 0.21094-0.035156 0.40234-0.13281 0.57031-0.28516 0.054687-0.050781 0.09375-0.09375 0.13281-0.15625 0.039063-0.050781 0.10156-0.078125 0.125-0.13281l3.0586-6.2266 1.1484 4.582c0.039063 0.14062 0.14453 0.23438 0.22266 0.34766 0.054687 0.074219 0.078125 0.15625 0.14062 0.21875 0.20312 0.17188 0.44922 0.28516 0.72266 0.28516h0.054688l5.6328-0.28125 3.2656 3.4062 4.0586 4.6875c0.054687 0.0625 0.14062 0.042968 0.20312 0.09375 0.078125 0.054687 0.10156 0.15625 0.18359 0.19531l3.1484 1.418c0.14453 0.066406 0.30859 0.10156 0.46094 0.10156 0.15625 0 0.32422-0.035156 0.48047-0.11328l3.4062-1.6133-6.3281 21.375-7.9453 12c-0.003906 0.011719 0 0.023437-0.003906 0.035156-0.003907 0.003906-0.023438 0.003906-0.027344 0.015625l-10.238 17.629c-0.023437 0.039063 0 0.078125-0.015624 0.11719-0.0625 0.12891-0.050782 0.25781-0.054688 0.41016s-0.027344 0.28516 0.027344 0.42188c0.011718 0.039063-0.011719 0.074219 0.003906 0.10547l7.0898 14.656c0.11328 0.23047 0.29297 0.37891 0.49219 0.49219 0.023438 0.011719 0.023438 0.035157 0.039063 0.039063l6.3828 2.9727-3.8711 47.102c0 0.035157 0.023438 0.042969 0.023438 0.078126 0 0.023437-0.027344 0.042968-0.027344 0.078124l0.32031 6.4531c0.003906 0.042968 0.050781 0.078124 0.0625 0.11719 0.003906 0.042969-0.027344 0.085937-0.015625 0.11719 0.039062 0.12891 0.14062 0.21875 0.21094 0.32031 0.054688 0.078125 0.085938 0.16406 0.15234 0.21875 0.19531 0.17188 0.4375 0.28516 0.71094 0.28516h0.054688c0.003906 0 0.011719-0.003906 0.011719-0.003906 0.085937-0.003906 0.15625-0.011719 0.23438-0.035156l2.625-0.73438 1.3047 17.449-0.62109 8.2617c0 0.042969 0.035156 0.074219 0.039062 0.11328 0 0.042969-0.039062 0.078126-0.035156 0.11719l2.6445 20.055-27.316 78.82c-0.011719 0.035156 0.011719 0.0625 0.003906 0.089844-0.011719 0.035156-0.042969 0.042968-0.050781 0.078125l-2.9922 16.066c-0.003906 0.027344 0.023438 0.050781 0.015625 0.078125-0.015625 0.15234 0.042969 0.27344 0.089844 0.42578 0.039063 0.12891 0.050781 0.26172 0.13281 0.375 0.015624 0.023438 0.011718 0.054688 0.027343 0.078125l7.6719 8.457 21.648 29.277v23.418c0 0.050781 0.050781 0.078125 0.054687 0.12891 0.003907 0.050782-0.035156 0.089844-0.023437 0.14062l4.8477 19.105 0.62891 14.84c0.003906 0.054687 0.054688 0.089844 0.0625 0.14062 0.011719 0.042969-0.027344 0.089843-0.011718 0.13281l3.5664 11.777-0.60938 9.207-2.2852 5.3359c-0.035156 0.074218 0.011719 0.14453 0 0.21875-0.023437 0.074218-0.089843 0.11719-0.09375 0.19531l-0.30078 14.398-7.0742 8.1367-13.551 10.926-10.879 1.6797c-0.09375 0.015625-0.13281 0.10547-0.22266 0.13281-0.085938 0.035156-0.17188 0-0.25391 0.054687l-4.2578 2.9961c-0.074219 0.050781-0.074219 0.14062-0.125 0.20312-0.10547 0.11328-0.16797 0.20703-0.22266 0.34766-0.050782 0.14062-0.066406 0.25391-0.054688 0.40234 0 0.085938-0.0625 0.15234-0.039062 0.24219l0.95312 3.7852c0.015625 0.074218 0.085937 0.11328 0.11719 0.17188 0.042969 0.10156 0.09375 0.16406 0.16406 0.24609 0.11719 0.13281 0.25391 0.22266 0.41406 0.29297 0.0625 0.023438 0.089844 0.09375 0.15234 0.11328l19.215 4.2461c0.085937 0.015625 0.16406 0.023438 0.24219 0.023438 0.16797 0 0.33984-0.035156 0.50391-0.11719l19.777-9.8789 23.863-8.0078c0.074218-0.023438 0.09375-0.10156 0.14453-0.12891 0.14453-0.085937 0.25391-0.16797 0.34766-0.30859 0.078125-0.10156 0.11719-0.18359 0.16406-0.30859 0.023437-0.066406 0.089843-0.11328 0.09375-0.18359l0.78906-6.4609c0.015625-0.14062-0.074219-0.24609-0.10547-0.375-0.035156-0.12891 0-0.26953-0.085937-0.38672l-2.9922-4.3945 0.30078-0.81641 2.0273-1.2227c0.035157-0.015625 0.035157-0.0625 0.054688-0.078125 0.14062-0.10156 0.20703-0.24219 0.29688-0.39062 0.050781-0.10547 0.12891-0.16797 0.14453-0.28125 0.003906-0.023438 0.027344-0.035156 0.035156-0.0625l3.6172-26.621c0.003906-0.054687-0.039063-0.09375-0.039063-0.14453s0.042969-0.089844 0.039063-0.14062l-1.5391-12.492 1.8633-5.707 3.1367 4.9336c0.21094 0.33594 0.57812 0.51562 0.94531 0.51562 0.19141 0 0.38672-0.042969 0.56641-0.15234l0.039063-0.023437 11.977-6.9648-4.0195 7.5156-5.6172 4.8594-4.0273 2.6328c-0.011719 0.003906-0.011719 0.015624-0.015626 0.023437-0.003906 0.011719-0.015624 0-0.027343 0.011719-0.11719 0.085937-0.13281 0.23047-0.21094 0.33984-0.078125 0.125-0.19531 0.21875-0.22266 0.35937-0.023437 0.14063 0.054687 0.28125 0.085937 0.42188 0.027344 0.13281-0.003906 0.28125 0.078126 0.39844 0.003906 0.003906 0.015624 0 0.023437 0.011719 0.003906 0.003906 0 0.023437 0.003906 0.027344l2.043 2.8398c0.023438 0.027344 0.054688 0.015625 0.078125 0.042969 0.20703 0.24219 0.48828 0.42578 0.82812 0.42578 0.011719 0 0.027344 0 0.042969-0.003906l16.812-0.62891h0.003906 0.039063c0.035156 0 0.054687-0.035157 0.085937-0.039063 0.17969-0.023437 0.35938-0.054687 0.51953-0.16797l19.227-13.598 13.539-4.207c0.078125-0.027344 0.10547-0.10547 0.16797-0.13281 0.078125-0.042969 0.17188-0.035157 0.24609-0.10156l7.5586-6.7695c0.039062-0.035156 0.027343-0.09375 0.0625-0.12891 0.10156-0.11328 0.12891-0.23047 0.17969-0.37109s0.09375-0.26172 0.085937-0.40234c-0.003906-0.054688 0.039063-0.09375 0.027344-0.14062l-1.418-7.0898c-0.003907-0.023437-0.027344-0.035156-0.035157-0.050781-0.035156-0.15625-0.16406-0.25781-0.26172-0.38672-0.085937-0.10156-0.125-0.22266-0.23437-0.29297-0.015626-0.011718-0.015626-0.035156-0.035157-0.039062l-14.594-7.9531 0.67578-0.67578v-0.011719h0.011719c0.11328-0.11328 0.11328-0.26172 0.16406-0.40234 0.042968-0.12891 0.15234-0.24219 0.15234-0.37891-0.003907-0.14062-0.11328-0.26172-0.16406-0.39062s-0.054687-0.28516-0.16406-0.39062h-0.011718v-0.011719l-21.578-20.934c-0.003907-0.011718-0.023438-0.011718-0.027344-0.011718-0.011719-0.011719-0.011719-0.023438-0.015625-0.035156l-6.0859-5.2969-24.445-31.258 0.77734-2.5977c0.027344-0.089844-0.035156-0.16406-0.023438-0.25391 0-0.089844 0.074219-0.15625 0.054688-0.25391l-1.3398-8.0703 5.2734-8.1406c0.039062-0.0625 0.011718-0.13281 0.039062-0.20312 0.035156-0.078125 0.11328-0.12891 0.125-0.21875l5.0352-29.77c0.011719-0.078126-0.042968-0.12891-0.042968-0.20313-0.003907-0.074218 0.050781-0.11719 0.039062-0.19141l-1.9883-10.852 7.9961-19.988 22.398-25.379c0.078125-0.089844 0.054688-0.20312 0.10547-0.30078 0.054687-0.11719 0.15625-0.21875 0.16797-0.35156l1.4219-18.582c0-0.035156-0.027343-0.054687-0.027343-0.089843 0-0.035157 0.027343-0.054688 0.027343-0.089844l-1.1016-13.703c-0.003906-0.074219-0.078125-0.11719-0.09375-0.17969s0.023438-0.13281-0.011719-0.20703l-6.2383-13.25-0.86719-4.3555 1.9766-0.51562c0.023437-0.011718 0.035156-0.035156 0.054687-0.042968 0.042969-0.011719 0.09375-0.011719 0.13281-0.035157 0.10547-0.042969 0.13281-0.16406 0.21875-0.24219 0.11719-0.10156 0.22266-0.17188 0.29297-0.3125 0.0625-0.12891 0.042968-0.25781 0.054687-0.41016 0.003907-0.11328 0.078125-0.21094 0.042969-0.33203-0.011719-0.042968-0.054688-0.054687-0.066406-0.089844-0.011719-0.039062 0.011718-0.078124-0.003906-0.11328l-3.9102-8.2812-6.0312-17.938 2.2852-12.809 4.0312-8.2031c0.015624-0.035156-0.003907-0.074218 0.003906-0.11328 0.015625-0.035156 0.0625-0.054687 0.074218-0.10156l2.457-9.3398 4.6016 5.0742 1.9727 5.7617c0.011719 0.035157 0.042969 0.050782 0.0625 0.078126 0.011719 0.023437-0.003906 0.050781 0.003907 0.074218l3.293 6.418v0.003906l2.9727 6.2617 9.7344 25.117 6.082 17.773-0.3125 24.465-1.4062 8.7305c-0.011719 0.054687 0.035156 0.089843 0.035156 0.14062 0 0.050782-0.050781 0.10156-0.042968 0.15234l1.4219 13.691c0.003907 0.039063 0.039063 0.054688 0.042969 0.089844 0.003907 0.035156-0.023437 0.054688-0.011719 0.089844l1.2617 4.7266c0.050781 0.18359 0.17188 0.33203 0.30859 0.46094 0.035156 0.035156 0.023437 0.089844 0.0625 0.11719 0.003906 0.003906 0.015625 0.003906 0.023437 0.003906 0.19531 0.15625 0.4375 0.25391 0.69531 0.25391 0.09375 0 0.19141-0.011719 0.29297-0.035156 0.14453-0.042969 0.21875-0.17188 0.33594-0.25781 0.074219-0.054687 0.17188-0.039062 0.23438-0.11719l2.3633-2.832c0.035156-0.035156 0.015624-0.089843 0.039062-0.12891 0.050781-0.066406 0.11719-0.11328 0.15234-0.18359l1.9023-5.0742 4.7266 10.086-0.91797 13.254c-0.003906 0.089843 0.066407 0.14062 0.078125 0.23047 0.023438 0.14062 0.054688 0.26172 0.12891 0.39062 0.078126 0.125 0.16406 0.20703 0.28516 0.29688 0.066406 0.054688 0.089843 0.14062 0.16797 0.17188 0.10547 0.050781 0.21875 0.0625 0.33203 0.078125 0.015625 0 0.027343 0.023438 0.050781 0.023438h0.078125c0.25391 0 0.48047-0.11328 0.67578-0.26172 0.066406-0.054687 0.10156-0.11719 0.15234-0.17188 0.066406-0.078125 0.14453-0.12891 0.19141-0.23047l4.1875-9.418 3.1016-0.8125c0.085937-0.023437 0.11719-0.11328 0.18359-0.14062 0.14453-0.078126 0.26172-0.15234 0.35938-0.27344 0.085937-0.10156 0.11719-0.19531 0.16406-0.32031 0.035156-0.085938 0.11328-0.13281 0.11719-0.23047l2.0508-18.742c0.011719-0.11719-0.074219-0.20312-0.09375-0.30859-0.046875-0.12109 0-0.23047-0.050781-0.32813zm-72.715-166.89-8.3789-1.3008-9.918-2.8242 8.2812-4.1367 8.9531-1.2266c0.074218-0.011718 0.11328-0.078124 0.17188-0.10156 0.17188-0.054688 0.32422-0.12891 0.44922-0.26172 0.078124-0.078125 0.11719-0.15625 0.16406-0.25781 0.042969-0.085938 0.125-0.13281 0.14453-0.23047l0.16406-0.6875 5.0742 3.5391zm-26.684 1.5c-0.011719 0.015625-0.003906 0.035156-0.011719 0.050781-0.015625 0.015625-0.039062 0.015625-0.050781 0.035156l-12.449 20.742-0.42578-4.082 2.3477-16.238c0.015625-0.125-0.066406-0.22266-0.089844-0.33984-0.015624-0.10547 0.027344-0.21094-0.023437-0.32031-0.015625-0.035156-0.0625-0.035156-0.078125-0.066406-0.078125-0.12891-0.19531-0.19141-0.32031-0.28125s-0.21875-0.17969-0.35938-0.21094c-0.039062-0.003906-0.050781-0.042968-0.089843-0.050781-0.125-0.015625-0.20703 0.0625-0.32422 0.078125-0.11328 0.015625-0.23047-0.027344-0.33594 0.023438l-0.94531 0.46875-5.1875 2.4453-2.4531-1.1016-3.9258-4.5352c-0.003906-0.003906-0.015625-0.003906-0.027344-0.011719-0.003906-0.003906 0-0.023437-0.011719-0.027343l-3.625-3.7812h-0.003906c-0.09375-0.089844-0.24219-0.10547-0.36328-0.15625-0.15234-0.066407-0.28516-0.16797-0.44922-0.16406-0.015625 0-0.027344-0.015625-0.042969-0.015625l-5.2266 0.25781-1.668-6.6602h-0.003906l-1.3984-7.4922c-0.003906-0.027344-0.035156-0.039062-0.042969-0.066406-0.027343-0.11719-0.11719-0.19531-0.18359-0.30078-0.09375-0.14453-0.17188-0.28516-0.32422-0.37109-0.023438-0.011719-0.027344-0.042969-0.050781-0.054688l-3.6797-1.8359-3.625-10.594 8.9883-16.094 22.977 12.09c0.16406 0.089843 0.34766 0.12891 0.51953 0.12891 0.26172 0 0.49219-0.11719 0.69531-0.29297 0.0625-0.042969 0.09375-0.089844 0.14062-0.14453 0.050781-0.0625 0.11719-0.09375 0.15234-0.16406 0.042968-0.085937 0.003906-0.17188 0.027343-0.26172 0.023438-0.09375 0.10547-0.15625 0.10547-0.25781v-1.6797l9.0547 7.6562 4.168 16.508c0.003906 0.015625 0.023438 0.023437 0.027344 0.042969 0.023438 0.074218 0.085938 0.11328 0.11719 0.17188 0.10156 0.17969 0.21094 0.33594 0.37891 0.4375 0.027344 0.015625 0.035156 0.054687 0.066406 0.074219 0.15625 0.078124 0.33203 0.11719 0.5 0.11719 0.089844 0 0.17969-0.011719 0.27344-0.035156 0.039062-0.003907 0.054687-0.050781 0.089843-0.066407 0.20703-0.074218 0.37109-0.19531 0.50781-0.375 0.035156-0.039062 0.074218-0.0625 0.10156-0.10547 0.003906-0.011719 0.027344-0.015625 0.035156-0.035156l2.0508-4.1055 11.008 4.6367c0.13281 0.054687 0.28516 0.089843 0.42969 0.089843 0.26953 0 0.50391-0.11719 0.70703-0.29297 0.0625-0.050781 0.09375-0.10547 0.14062-0.17187 0.0625-0.078126 0.14453-0.125 0.18359-0.22266 0.035156-0.078125-0.015625-0.15234 0-0.23047 0.015625-0.078124 0.089844-0.125 0.089844-0.20703v-2.7656l3.668 2.832 3.1094 2.9688-0.30859 1.3086-8.3789 1.1484c-0.066406 0.003906-0.10156 0.074219-0.16406 0.09375-0.0625 0.015625-0.125-0.015625-0.18359 0.011719l-11.027 5.5117c-0.011719 0-0.011719 0.011719-0.015625 0.015625-0.085937 0.042969-0.11719 0.13281-0.17969 0.19531-0.066407 0.050781-0.15234 0.050781-0.20312 0.11719zm11.16-76.988 0.16797 0.14453-0.48828-0.16406zm-58.461 54.27c-0.015625-0.074219-0.09375-0.11719-0.11719-0.18359-0.089843-0.20703-0.18359-0.41016-0.35938-0.52734h-0.003906c-0.074219-0.042968-0.15625-0.011718-0.23438-0.042968-0.18359-0.074219-0.37109-0.15625-0.58984-0.11719 0 0-0.003906 0.003906-0.011719 0.003906-0.14062 0.027344-0.24219 0.15625-0.36328 0.24609-0.11719 0.078125-0.26172 0.11719-0.33984 0.23438 0 0-0.003907 0-0.003907 0.003906l-2.1914 3.375-3.207-9.8828c-0.011719-0.027344-0.050782-0.039063-0.0625-0.066407-0.011719-0.027343 0.011718-0.0625-0.003906-0.09375l-4.5234-8.8984 3.168-10.438c0.023437-0.074219-0.027344-0.13281-0.023438-0.21094 0.015625-0.14453 0-0.26172-0.039062-0.40234-0.039063-0.14453-0.09375-0.25391-0.18359-0.37109-0.042969-0.054688-0.039063-0.13281-0.09375-0.18359-0.066406-0.054687-0.15234-0.035156-0.21875-0.074218-0.078125-0.039063-0.10547-0.125-0.18359-0.15234-0.074219-0.023438-0.13281 0.027344-0.20703 0.023437-0.15234-0.015625-0.27344 0-0.42578 0.039063-0.12891 0.039062-0.23047 0.089844-0.34766 0.17188-0.0625 0.042969-0.14453 0.039062-0.19531 0.10156l-3.6406 4.2188 2.1289-6.5234 6.4102-3.8789c0.11719-0.066407 0.14062-0.20313 0.21875-0.29688 0.050781-0.054687 0.13281-0.035156 0.17187-0.10156l4.2578-7.3906c0.003906-0.003906 0-0.015625 0-0.027344 0.011719-0.003906 0.015625-0.011719 0.023437-0.015625l3.0078-5.8633 6.0195-3.6172c0.042969-0.023438 0.042969-0.078126 0.085938-0.11328 0.042968-0.035156 0.10156-0.015625 0.13281-0.054687l7.125-7.1289 8.3438-4.3906 5.6562 2.4648c0.14453 0.066407 0.30078 0.09375 0.44922 0.09375 0.15234 0 0.3125-0.035156 0.46094-0.10156l5.4922-2.457 5.5508 2.8516 6.0742 4.6719c0.14062 0.11328 0.3125 0.12891 0.48047 0.16406 0.054687 0.011718 0.085937 0.0625 0.13281 0.066406l5.3125 0.30859c-0.023437 0.14453-0.003906 0.26172 0.035157 0.41016 0.035156 0.14453 0.078124 0.25391 0.16406 0.375 0.042969 0.054687 0.035156 0.12891 0.085938 0.17969l6.1484 5.8281c0.027344 0.027344 0.074219 0.015625 0.10547 0.039063 0.035156 0.023437 0.035156 0.074219 0.066406 0.09375l9.2969 5.9141-2.8008 0.21875c-0.078125 0.003907-0.11719 0.078125-0.19531 0.10156-0.078125 0.015625-0.15234-0.015625-0.22266 0.015625-0.074219 0.035156-0.085937 0.11719-0.14062 0.16797-0.11719 0.09375-0.19531 0.18359-0.26953 0.3125-0.078125 0.12891-0.11328 0.24219-0.12891 0.39062-0.011718 0.078126-0.074218 0.12891-0.066406 0.21094 0.003906 0.085938 0.078125 0.13281 0.10547 0.21094 0.015625 0.074218-0.015625 0.14062 0.015625 0.21094l3.4648 6.7695c0.078125 0.15234 0.20312 0.25391 0.33203 0.35156 0.023437 0.015625 0.023437 0.054687 0.050781 0.074219l7.582 5.0195-3.6133 3.125c-0.089844 0.078125-0.089844 0.19531-0.14453 0.29297-0.0625 0.09375-0.16406 0.14453-0.19531 0.25781-0.011718 0.039062 0.015626 0.074219 0.015626 0.11328-0.035157 0.14453 0.011718 0.27344 0.042968 0.42188 0.035156 0.14453 0.050782 0.26953 0.12891 0.39062 0.023438 0.035157 0.011719 0.078125 0.039063 0.11328 0.066406 0.078126 0.16797 0.0625 0.24609 0.11719 0.11328 0.074219 0.16797 0.19531 0.30078 0.23438l4.5312 1.2539-5.1875 2.4883c-0.035156 0.015626-0.039062 0.054688-0.066406 0.074219-0.035156 0.015625-0.074219 0-0.10156 0.023438-0.10156 0.074219-0.11328 0.19531-0.17969 0.28516-0.089844 0.11719-0.18359 0.21094-0.21875 0.35938-0.039063 0.13281 0 0.25781 0.023437 0.39844 0.011719 0.11719-0.039062 0.23437 0.015625 0.35156 0.015625 0.039062 0.0625 0.054688 0.085938 0.089844 0.011718 0.023437 0 0.050781 0.015625 0.074218l3.8086 5.3555-6.7812-2.3359c-0.015624-0.003906-0.039062 0.003906-0.0625 0-0.13281-0.039063-0.26953 0.011718-0.41016 0.023437-0.14453 0.015625-0.29688-0.003906-0.42188 0.066407-0.023437 0.003906-0.039062 0-0.054687 0.003906-0.11719 0.074218-0.14453 0.20703-0.23047 0.30859-0.085937 0.10156-0.20703 0.15625-0.25391 0.28516-0.003907 0.015625 0.011719 0.035156 0 0.050781-0.035157 0.13281 0.015625 0.26172 0.027343 0.41016 0.015626 0.15234-0.003906 0.30078 0.074219 0.4375 0.003907 0.011719-0.003906 0.035157 0.003907 0.050781l5.9258 9.8164 2.1211 5.9961-6.082 0.11719-5.2031-4.0078c-0.10547-0.078126-0.23047-0.054688-0.34766-0.09375-0.11719-0.039063-0.20703-0.14063-0.33984-0.14063-0.027344 0-0.042968 0.027344-0.066406 0.027344-0.14453 0.011719-0.25781 0.09375-0.38672 0.16406-0.13281 0.066406-0.26953 0.10156-0.36328 0.21094-0.023438 0.023438-0.050781 0.015625-0.066406 0.039063-0.078125 0.10156-0.054688 0.22266-0.09375 0.33984-0.042969 0.11719-0.14062 0.21094-0.14062 0.34766v3.3594l-10.422-4.3906c-0.11719-0.050781-0.24219 0.003906-0.36328 0-0.15625-0.011719-0.30859-0.054688-0.45312 0-0.11328 0.039062-0.16797 0.15234-0.26172 0.23047-0.11719 0.10156-0.28125 0.15625-0.34766 0.30859l-0.035156 0.066407-1.1328 2.2734-3.5156-13.922c-0.039063-0.13281-0.15234-0.20312-0.22266-0.3125-0.0625-0.089844-0.054687-0.20312-0.14062-0.26953l-11.176-9.4531c-0.10547-0.089844-0.24219-0.074219-0.35938-0.11719-0.11719-0.042968-0.21875-0.15234-0.35938-0.15234-0.023437 0-0.027344 0.015626-0.042968 0.015626-0.14063 0.003906-0.24219 0.10156-0.37109 0.15234-0.14062 0.0625-0.29688 0.089844-0.39062 0.20703-0.011719 0.011719-0.035157 0.003907-0.042969 0.023438-0.085938 0.10156-0.066406 0.23047-0.11328 0.33984-0.054688 0.12891-0.15625 0.23438-0.15625 0.37891v2.2383l-22.27-11.723c-0.003907 0-0.003907-0.003906-0.003907-0.003906h-0.011719l-0.042968-0.046875c-0.13281-0.078125-0.29297-0.035156-0.44141-0.042969-0.12891-0.011719-0.26172-0.078125-0.38672-0.039063-0.15625 0.042969-0.25781 0.19141-0.37891 0.30078-0.09375 0.085937-0.21875 0.11328-0.28516 0.22266l-9.7656 17.484c-0.003906 0.011719 0 0.023437-0.003906 0.035156-0.0625 0.11719-0.027344 0.25781-0.042969 0.39062-0.015625 0.15625-0.078125 0.30078-0.035156 0.45312 0.003906 0.011719-0.003906 0.023438 0 0.035157l3.9375 11.496c0.09375 0.26953 0.29297 0.46094 0.51953 0.58203 0.015625 0.011719 0.023438 0.039063 0.042969 0.050782l3.6016 1.7969 1.2422 6.6484-2.4375 4.957-0.32422-4.25c0-0.023438-0.027343-0.039063-0.035156-0.0625-0.074219-0.56641-0.46094-0.98438-1.125-0.95313-0.14062 0.003907-0.25391 0.10156-0.37891 0.15625-0.14453 0.066407-0.32422 0.10156-0.42578 0.22266l-1.9609 2.3203-2.2227-11.262c-0.007813-0.007812-0.015625-0.007812-0.015625-0.011718zm33.102 143.77 13.559-5.0742 21.27 0.46094 22.793 3.7969 0.70703 3.5352-10.574 0.99609c-0.039063 0-0.050782 0.035156-0.089844 0.042969-0.035156 0.003906-0.0625-0.023438-0.09375-0.011719l-26.141 6.9219c-0.027344 0.011719-0.035157 0.039062-0.0625 0.042969-0.023438 0.011719-0.050781-0.011719-0.074219 0l-28.195 11.25-1.2539-16.711zm93.887 231.68-6.8984 6.1836-13.469 4.1758c-0.0625 0.023438-0.085937 0.089844-0.14062 0.11719-0.054688 0.023437-0.11719 0-0.16797 0.035156l-19.098 13.52-15.926 0.58984-1.0117-1.3984 3.1133-2.0312c0.023437-0.011719 0.023437-0.042969 0.042968-0.0625 0.023438-0.015625 0.054688-0.011719 0.078126-0.027343l5.8281-5.0508c0.035157-0.027344 0.027344-0.078125 0.054688-0.11328 0.066406-0.066406 0.15234-0.11719 0.20312-0.20703l5.8398-10.91 14.543-8.8086c0.035156-0.023438 0.035156-0.066406 0.0625-0.089844 0.035156-0.023438 0.085937-0.011719 0.11328-0.042969l10.895-9.8555 14.75 8.0352zm-83.852 52.742 13.031 3.1133-0.20313 0.54688c-0.011718 0.027343 0.011719 0.0625 0.003907 0.09375-0.039063 0.14062-0.003907 0.27344 0.015625 0.41406 0.015625 0.15234 0.011718 0.28516 0.089844 0.41406 0.011718 0.035156 0 0.066406 0.015624 0.089844l3.0781 4.5312-0.65625 5.3477-23.27 7.8125c-0.027344 0.011718-0.039062 0.042968-0.0625 0.054687-0.035156 0.011719-0.0625-0.003906-0.089844 0.011719l-19.488 9.7344-18.145-4.0078-0.59375-2.3672 3.4102-2.4062 10.922-1.6875c0.078125-0.011719 0.11328-0.089844 0.17969-0.11328 0.11719-0.042969 0.25391-0.042969 0.35156-0.125l13.867-11.176c0.027343-0.027343 0.027343-0.074218 0.050781-0.09375 0.027344-0.027343 0.066406-0.015624 0.09375-0.042968l7.1406-8.2148zm46.855-335.61-4.0586 8.2656c-0.023437 0.050782 0.003907 0.10156-0.011718 0.15234-0.015625 0.050782-0.078125 0.085938-0.089844 0.14062l-2.3633 13.223c-0.015625 0.10547 0.054687 0.18359 0.066406 0.28516 0 0.09375-0.054687 0.17188-0.023437 0.27344l6.1484 18.273c0.011719 0.027343 0.035156 0.039062 0.042969 0.0625 0.011718 0.023437 0 0.042969 0.003906 0.0625l3.3672 7.125-1.4609 0.37891-23.391-3.8906c-0.035156-0.011719-0.054687 0.023438-0.085937 0.015625-0.035157-0.003906-0.050782-0.039063-0.085938-0.039063l-21.578-0.46484c-0.003906-0.003907-0.015625-0.003907-0.023437-0.003907-0.078126 0-0.125 0.066407-0.19141 0.085938-0.074219 0.011719-0.12891-0.035156-0.20312-0.003906l-13.867 5.1953c-0.042969 0.011719-0.054688 0.066406-0.09375 0.089844-0.039063 0.015625-0.085938-0.003906-0.11719 0.023438l-8.668 5.5703-2.4297 0.67578-0.24219-5 3.9258-47.789c0.003906-0.089844-0.0625-0.14062-0.078125-0.23047-0.015625-0.14453-0.050782-0.26172-0.11719-0.39062-0.078125-0.12891-0.16406-0.20703-0.28125-0.30078-0.066406-0.050782-0.085937-0.14453-0.16406-0.17969l-6.7305-3.1406-6.6523-13.758 9.9102-17.074 8.0312-12.117c0.035156-0.042968 0.003906-0.10156 0.027343-0.14453 0.027344-0.054687 0.09375-0.089843 0.11328-0.15625l4.4062-14.895-0.91797 6.3828c-0.003906 0.050782 0.039062 0.089844 0.039062 0.13281-0.003906 0.050781-0.050781 0.085937-0.042968 0.13281l0.78906 7.5703c0 0.035156 0.035156 0.050781 0.042969 0.078125 0.015625 0.11719 0.09375 0.19141 0.14453 0.29297 0.085938 0.15234 0.14453 0.29297 0.29297 0.39062 0.027343 0.023437 0.027343 0.0625 0.0625 0.085937 0.17969 0.11328 0.375 0.16406 0.57812 0.16406 0.039062 0 0.078125 0 0.11719-0.003907 0.34766-0.035156 0.60547-0.23437 0.78516-0.5 0.015624-0.023437 0.054687-0.011718 0.066406-0.035156l14.152-23.594 3.9102-5.3086 12.012 3.4141c0.039063 0.011719 0.078126 0.011719 0.11719 0.015625 0.011719 0 0.011719 0.011719 0.023438 0.011719l9.1406 1.418c0.054688 0.003906 0.11719 0.011718 0.16797 0.011718 0.33984 0 0.60938-0.18359 0.81641-0.4375 0.027343-0.027344 0.078124-0.015625 0.10547-0.054687l5.5039-8.0625 9.4766 6.457c0.011719 0.003906 0.023437 0 0.035156 0.011719 0.011719 0.003906 0.011719 0.023437 0.023438 0.027343l14.387 8.5781 6.9766 30.867c0.011719 0.035156 0.042969 0.050781 0.050781 0.085937 0.011719 0.023438-0.011719 0.050782 0 0.078126l8.0234 20.676-2.082 4.5859-12.02 12.582-2.5469-4.9688-2.0234-5.9258c-0.027344-0.085937-0.11328-0.10547-0.15234-0.17188-0.039062-0.074219-0.023438-0.15234-0.078125-0.21094l-6.1484-6.7695c-0.078126-0.089843-0.19531-0.085937-0.29688-0.13281-0.089843-0.0625-0.14062-0.16406-0.25391-0.19141-0.042968-0.011719-0.078125 0.023437-0.11719 0.011718-0.14453-0.023437-0.26953 0.023438-0.41406 0.0625-0.14062 0.039063-0.26172 0.050782-0.37891 0.13281-0.035156 0.027344-0.089844 0.011719-0.11719 0.042969-0.089843 0.078125-0.089843 0.19531-0.14062 0.29688-0.050782 0.10156-0.15625 0.14062-0.18359 0.25391zm29.34 39.391c-0.003906-0.011718 0.003906-0.015624 0-0.023437l-9.7656-25.199c-0.003906-0.015625-0.027344-0.023437-0.027344-0.035156-0.011719-0.015625 0-0.035156-0.003906-0.042969l-2.6641-5.6055 11.57-12.113 4.0312 8.5977c0.011719 0.027343 0.039063 0.039062 0.050781 0.0625 0.011719 0.015624 0 0.039062 0.011719 0.0625l7.6289 12.281 2.2969 9.8008 5.0273 54.438c0.003906 0.078125 0.078125 0.125 0.10156 0.19531 0.015626 0.066407-0.023437 0.12891 0.011719 0.19531l6.9375 14.195-1.9336 17.664-2.8711 0.74609c-0.023438 0.011719-0.035156 0.035157-0.054688 0.042969-0.12891 0.042969-0.21094 0.15234-0.33203 0.25391-0.11328 0.09375-0.24219 0.15625-0.30859 0.29687-0.011719 0.015626-0.039062 0.023438-0.050781 0.042969l-1.832 4.1094 0.50391-7.207c0.003906-0.11328-0.074219-0.17188-0.089844-0.27344-0.023437-0.10156 0.027344-0.18359-0.015625-0.28516l-5.9766-12.73v-0.011718l-0.003906-0.011719c-0.039063-0.089844-0.13281-0.11328-0.19531-0.17188-0.125-0.15234-0.22266-0.32422-0.42188-0.39062h-0.011719c-0.10156-0.035156-0.20312 0.015625-0.30859 0.011719-0.18359-0.011719-0.37109-0.054688-0.54297 0.023437h-0.011719c-0.14453 0.066407-0.20312 0.21875-0.30078 0.33594-0.09375 0.10547-0.22266 0.15234-0.27344 0.29297l-2.7656 7.3789-0.85156 1.0234-0.67578-2.543-1.3984-13.484 1.3984-8.6641c0.003907-0.035156-0.023437-0.054687-0.023437-0.078125 0.003906-0.035156 0.039063-0.054688 0.039063-0.089844l0.3125-24.73c0-0.074219-0.0625-0.11719-0.078126-0.18359-0.003906-0.066406 0.039063-0.125 0.015626-0.19141l-6.1445-17.961c0.011719-0.011719 0-0.019531-0.003906-0.023438z"/>
  <path d="m316.11 242.57c0.61719 0 1.1211-0.50391 1.1211-1.1133v-7.2539c0-0.62109-0.50391-1.125-1.1211-1.125s-1.1211 0.50391-1.1211 1.125v7.2539c0 0.61328 0.50391 1.1133 1.1211 1.1133z"/>
  <path d="m350.04 154.14-13.523 17.512h-15.68c-0.61719 0-1.1211 0.50391-1.1211 1.125 0 0.60938 0.50391 1.1133 1.1211 1.1133h16.223c0.33984 0 0.61719-0.16406 0.82422-0.40234 0.015626-0.023437 0.042969-0.011719 0.0625-0.035156l13.867-17.949c0.375-0.48828 0.29297-1.1914-0.20312-1.5625-0.48828-0.37891-1.1992-0.28906-1.5703 0.19922z"/>
  <use x="70" y="644" xlink:href="#w"/>
  <use x="90.550781" y="644" xlink:href="#a"/>
  <use x="104.359375" y="644" xlink:href="#b"/>
  <use x="123.347656" y="644" xlink:href="#e"/>
  <use x="142.242188" y="644" xlink:href="#d"/>
  <use x="155.628906" y="644" xlink:href="#b"/>
  <use x="174.617188" y="644" xlink:href="#j"/>
  <use x="204.410156" y="644" xlink:href="#f"/>
  <use x="224.453125" y="644" xlink:href="#i"/>
  <use x="252.453125" y="644" xlink:href="#h"/>
  <use x="270.292969" y="644" xlink:href="#v"/>
  <use x="279.890625" y="644" xlink:href="#g"/>
  <use x="299.824219" y="644" xlink:href="#u"/>
  <use x="309.421875" y="644" xlink:href="#t"/>
  <use x="326.085938" y="644" xlink:href="#e"/>
  <use x="354.730469" y="644" xlink:href="#s"/>
  <use x="365.148438" y="644" xlink:href="#f"/>
  <use x="385.191406" y="644" xlink:href="#c"/>
  <use x="404.429688" y="644" xlink:href="#a"/>
  <use x="418.234375" y="644" xlink:href="#a"/>
  <use x="432.046875" y="644" xlink:href="#e"/>
  <use x="70" y="672" xlink:href="#r"/>
  <use x="82.183594" y="672" xlink:href="#a"/>
  <use x="95.992188" y="672" xlink:href="#c"/>
  <use x="115.226562" y="672" xlink:href="#q"/>
  <use x="154.152344" y="672" xlink:href="#d"/>
  <use x="167.535156" y="672" xlink:href="#p"/>
  <use x="187.46875" y="672" xlink:href="#b"/>
  <use x="216.207031" y="672" xlink:href="#o"/>
  <use x="239.640625" y="672" xlink:href="#c"/>
  <use x="258.878906" y="672" xlink:href="#g"/>
  <use x="278.8125" y="672" xlink:href="#n"/>
  <use x="308.492188" y="672" xlink:href="#m"/>
  <use x="329.015625" y="672" xlink:href="#a"/>
  <use x="342.820312" y="672" xlink:href="#c"/>
  <use x="362.058594" y="672" xlink:href="#l"/>
  <use x="371.65625" y="672" xlink:href="#b"/>
  <use x="390.648438" y="672" xlink:href="#k"/>
  <use x="407.242188" y="672" xlink:href="#d"/>
 </g>
</svg>
